<?xml version="1.0" standalone="no"?>
<!DOCTYPE svg PUBLIC "-//W3C//DTD SVG 20010904//EN"
 "http://www.w3.org/TR/2001/REC-SVG-20010904/DTD/svg10.dtd">
<svg version="1.0" xmlns="http://www.w3.org/2000/svg"
 width="209.000000pt" height="209.000000pt" viewBox="0 0 209.000000 209.000000"
 preserveAspectRatio="xMidYMid meet">

<g transform="translate(0.000000,209.000000) scale(0.100000,-0.100000)"
fill="#222222" stroke="none">
<path d="M0 1045 l0 -1045 1045 0 1045 0 0 1045 0 1045 -1045 0 -1045 0 0
-1045z m795 498 c144 -131 216 -277 214 -434 -1 -119 -16 -123 -59 -15 -35 87
-127 221 -204 296 -62 61 -196 160 -217 160 -14 0 -11 -23 16 -109 55 -174
134 -306 269 -448 43 -46 75 -83 71 -83 -4 0 -44 19 -88 43 -147 78 -288 233
-369 407 -62 134 -110 311 -124 458 l-7 74 217 -146 c120 -80 246 -172 281
-203z m920 51 c-7 -131 -25 -198 -80 -310 -68 -136 -187 -256 -342 -348 -21
-12 -15 1 18 36 44 47 112 145 142 203 37 71 79 185 68 185 -5 0 -42 -22 -83
-49 -85 -57 -176 -149 -238 -241 -46 -68 -110 -203 -110 -232 0 -13 -8 -18
-28 -18 -29 0 -29 0 -24 58 17 229 107 381 337 565 135 108 196 167 268 262
l61 80 9 -45 c4 -25 6 -91 2 -146z m-1234 -735 c68 -61 179 -149 246 -196 144
-100 203 -160 243 -246 39 -82 39 -103 -1 -111 -50 -10 -55 -8 -109 38 -61 52
-140 95 -256 141 -109 43 -143 69 -181 142 -44 84 -101 343 -75 343 4 0 64
-50 133 -111z m1244 9 c-37 -180 -99 -324 -178 -414 -39 -45 -156 -138 -163
-131 -2 2 14 37 36 78 34 66 108 284 99 294 -7 6 -135 -84 -188 -131 -58 -52
-114 -125 -156 -203 -27 -51 -33 -56 -67 -59 -38 -3 -38 -3 -38 33 0 59 48
184 95 251 57 80 156 168 253 227 100 60 316 160 320 147 2 -5 -4 -47 -13 -92z"/>
</g>
</svg>
