<?xml version="1.0" standalone="no"?>
<!DOCTYPE svg PUBLIC "-//W3C//DTD SVG 20010904//EN"
 "http://www.w3.org/TR/2001/REC-SVG-20010904/DTD/svg10.dtd">
<svg version="1.0" xmlns="http://www.w3.org/2000/svg"
 width="675.000000pt" height="741.000000pt" viewBox="0 0 675.000000 741.000000"
 preserveAspectRatio="xMidYMid meet">

<g transform="translate(0.000000,741.000000) scale(0.100000,-0.100000)"
fill="#000000" stroke="none">
<path d="M3285 7296 c-412 -81 -699 -444 -672 -849 31 -452 415 -782 876 -754
121 8 192 27 306 82 211 102 362 289 421 522 107 422 -147 863 -566 983 -96
28 -267 35 -365 16z"/>
<path d="M1424 6818 c-47 -22 -58 -95 -20 -133 33 -33 69 -35 519 -32 l389 2
30 34 c24 27 29 39 24 65 -3 17 -17 41 -32 54 l-25 22 -432 -1 c-276 0 -440
-4 -453 -11z"/>
<path d="M4489 6801 c-36 -37 -38 -79 -5 -118 l24 -28 389 -3 c213 -2 408 0
432 3 85 13 122 95 66 150 l-24 25 -426 0 -427 0 -29 -29z"/>
<path d="M656 6510 c-44 -8 -76 -40 -76 -76 0 -36 20 -71 47 -83 16 -8 176
-11 513 -11 l488 0 31 26 c41 34 43 89 5 125 l-26 24 -471 1 c-260 1 -490 -2
-511 -6z"/>
<path d="M4550 6273 c-62 -23 -81 -103 -35 -148 l24 -25 356 0 357 0 30 30
c26 27 30 36 25 67 -4 20 -16 46 -27 57 -20 20 -32 21 -368 23 -191 1 -354 -1
-362 -4z"/>
<path d="M909 6027 c-58 -67 -114 -136 -124 -152 -10 -17 -20 -32 -22 -34 -1
-2 -44 29 -96 68 -51 39 -96 71 -100 71 -13 0 -7 -274 7 -341 38 -179 170
-323 336 -366 l70 -17 0 -295 0 -294 -22 19 c-22 18 -218 194 -228 204 -10 10
-196 176 -240 214 -25 22 -88 78 -140 126 -196 178 -199 181 -229 151 -17 -17
-18 -110 -17 -2660 1 -2410 2 -2644 17 -2654 12 -9 801 -12 3269 -12 3075 1
3253 2 3265 18 10 14 13 539 13 2649 0 1636 -3 2639 -9 2650 -19 35 -60 21
-129 -44 -36 -33 -121 -113 -189 -177 -68 -64 -129 -121 -135 -126 -6 -6 -102
-95 -214 -198 l-202 -188 0 215 0 216 38 19 c76 39 149 142 177 251 22 84 21
248 -1 338 -40 161 -130 335 -227 439 -16 17 -35 29 -43 26 -22 -8 -119 -142
-163 -224 -126 -234 -146 -491 -54 -672 30 -61 113 -150 153 -167 l30 -12 0
-211 0 -211 -37 35 c-65 61 -166 153 -228 210 -33 30 -64 59 -70 65 -13 15
-369 332 -406 363 -25 20 -33 22 -53 13 -13 -6 -86 -68 -162 -139 -75 -70
-216 -201 -313 -290 l-175 -162 -40 34 c-98 84 -105 89 -129 77 -12 -6 -69
-54 -126 -106 -58 -53 -109 -96 -116 -96 -6 0 -17 8 -26 18 -8 9 -60 58 -114
107 -55 50 -134 123 -177 163 -44 39 -85 72 -93 72 -16 0 -80 -55 -303 -258
-74 -67 -138 -122 -142 -122 -5 0 -13 6 -17 13 -4 6 -37 39 -73 72 -36 33
-116 107 -179 165 -62 58 -123 112 -135 120 -12 8 -31 24 -42 35 -11 11 -51
47 -89 80 -76 66 -156 138 -255 231 -127 118 -194 174 -207 174 -13 0 -680
-606 -845 -769 l-88 -86 0 296 0 296 51 11 c83 19 160 63 225 127 112 110 144
207 144 438 0 81 -3 147 -8 147 -12 0 -52 -29 -120 -88 -34 -30 -64 -53 -65
-51 -33 50 -256 309 -266 309 -4 0 -54 -55 -112 -123z m1451 -1211 c91 -83
188 -170 215 -195 28 -24 76 -69 108 -99 l57 -54 -46 -42 c-66 -58 -71 -60
-98 -39 -13 10 -156 137 -317 283 -292 263 -294 265 -292 303 1 21 9 63 18 93
l16 56 87 -79 c48 -43 161 -145 252 -227z m2689 47 c36 -26 133 -91 215 -146
232 -155 340 -269 393 -413 30 -85 42 -229 21 -257 -12 -17 -18 -9 -58 80 -52
113 -132 225 -216 302 -57 53 -203 155 -211 148 -9 -10 63 -221 100 -292 51
-98 141 -218 221 -296 33 -33 56 -59 52 -59 -23 0 -174 90 -226 135 -180 153
-303 404 -349 715 -7 41 -14 87 -16 103 -2 15 -2 27 1 27 4 0 36 -21 73 -47z
m-4578 -107 c50 -62 84 -134 95 -205 l6 -38 62 -6 c91 -9 164 -40 229 -98 81
-72 109 -131 115 -239 l4 -85 -44 60 c-109 148 -209 197 -426 211 -84 6 -105
10 -109 23 -2 9 -4 113 -6 232 -2 175 1 216 11 211 7 -2 36 -32 63 -66z m1179
-145 c0 -252 0 -251 -78 -251 -100 0 -217 -21 -279 -50 -72 -33 -150 -102
-195 -172 -17 -26 -33 -48 -36 -48 -3 0 -3 33 0 73 12 190 148 326 344 344
l62 6 11 56 c16 80 53 153 107 211 26 27 51 50 55 50 5 0 9 -99 9 -219z m3110
49 c-7 -4 -55 -15 -108 -25 -53 -10 -101 -20 -107 -23 -23 -12 36 46 125 124
l95 84 3 -77 c2 -49 -1 -79 -8 -83z m1630 9 c0 -247 -51 -381 -207 -549 -48
-52 -206 -170 -227 -170 -4 0 18 28 49 63 31 34 75 92 96 129 47 77 112 238
98 238 -20 0 -125 -76 -192 -140 -106 -99 -198 -241 -232 -355 -10 -33 -17
-41 -40 -43 l-28 -4 7 59 c13 115 28 170 71 258 54 112 129 196 304 339 123
100 193 172 261 268 18 27 35 46 37 44 2 -2 4 -64 3 -137z m-4165 -180 c132
-118 331 -294 443 -393 111 -98 202 -181 202 -185 -1 -3 -31 -30 -67 -59 l-66
-53 -46 43 c-109 103 -323 299 -548 502 -134 120 -243 224 -243 231 0 18 30
147 37 158 3 5 15 0 27 -11 11 -10 129 -115 261 -233z m1265 45 c70 -88 73
-74 -42 -170 l-78 -66 -70 62 c-39 34 -70 65 -70 68 0 12 184 191 191 186 4
-2 35 -38 69 -80z m1300 -138 c0 -55 -4 -87 -12 -94 -7 -6 -105 -29 -218 -52
-423 -86 -653 -141 -725 -174 -66 -31 -297 -202 -644 -478 -68 -54 -128 -98
-133 -98 -5 0 -34 23 -64 52 -63 60 -67 51 61 153 360 286 685 529 750 560 46
22 144 45 740 174 99 22 195 40 213 40 l32 1 0 -84z m-1762 -185 c51 -46 92
-89 92 -95 0 -6 -25 -31 -56 -55 -64 -50 -42 -59 -184 72 -47 44 -85 83 -85
87 0 5 24 29 53 54 63 54 48 59 180 -63z m-2501 -193 c12 -24 27 -72 33 -106
l13 -62 36 0 c89 0 194 -43 262 -107 76 -71 109 -146 109 -248 l0 -80 -30 50
c-43 73 -116 142 -186 175 -62 30 -134 45 -279 58 l-80 7 -2 235 -3 235 53
-56 c30 -31 63 -76 74 -101z m1120 -78 c-1 -120 -5 -222 -9 -225 -4 -4 -62
-14 -129 -21 -146 -16 -209 -33 -271 -74 -54 -36 -130 -117 -159 -169 l-20
-36 4 80 c8 189 130 318 328 347 41 6 75 12 77 14 2 1 10 32 17 68 8 36 22 82
31 102 21 44 113 146 125 138 5 -3 8 -103 6 -224z m3143 -20 c0 -72 -2 -81
-22 -94 -13 -8 -162 -42 -333 -75 -364 -73 -451 -93 -502 -120 -52 -27 -153
-104 -337 -259 l-51 -43 -128 2 c-70 0 -127 5 -125 9 6 16 483 398 568 455 54
36 121 55 420 115 113 23 255 53 315 65 61 13 129 24 153 24 l42 1 0 -80z
m461 -121 c35 -30 115 -91 178 -135 62 -43 131 -98 152 -123 44 -50 87 -132
95 -182 l6 -34 -47 -3 c-43 -2 -51 2 -98 43 -51 45 -146 96 -281 151 -38 15
-84 41 -102 57 -61 53 -114 200 -130 357 l-7 73 85 -74 c46 -41 113 -99 149
-130z m1144 55 c-53 -235 -129 -369 -269 -470 -70 -52 -85 -55 -56 -14 33 47
75 147 104 249 15 51 26 95 24 96 -2 2 -40 -21 -84 -51 -101 -67 -191 -161
-250 -263 -42 -72 -47 -78 -79 -79 -34 -1 -35 0 -35 37 0 55 34 157 71 216 45
71 150 176 228 228 107 72 363 195 369 177 2 -4 -9 -61 -23 -126z m-4186 35
c50 -45 91 -84 91 -89 0 -9 -252 -50 -313 -50 -76 0 -104 48 -76 129 6 17 21
37 33 43 20 11 138 45 162 47 6 1 52 -35 103 -80z m402 -366 c123 -105 198
-177 193 -184 -6 -10 -865 -12 -880 -1 -55 37 -35 136 31 156 16 4 267 41 470
69 17 2 53 5 80 6 47 1 55 -3 106 -46z m2227 -78 c5 -117 25 -109 -327 -113
-329 -3 -318 -5 -281 55 55 90 222 133 505 129 l100 -1 3 -70z m-3882 -650
c51 -21 73 -42 95 -90 44 -95 1 -222 -86 -261 l-30 -13 27 -1 c38 0 101 -59
132 -123 44 -88 33 -192 -29 -264 -43 -51 -103 -73 -197 -73 l-69 0 35 36 c92
95 90 300 -3 393 l-38 38 29 34 c77 92 72 232 -11 323 l-26 29 67 -6 c36 -3
84 -13 104 -22z m656 -3 c-85 -118 -125 -315 -103 -497 15 -126 30 -177 75
-261 33 -62 33 -64 12 -64 -75 0 -193 80 -249 168 -62 97 -70 128 -70 252 -1
69 4 127 12 145 25 62 87 151 133 193 47 44 144 91 186 92 l23 0 -19 -28z
m310 -2 c83 -37 176 -146 214 -250 24 -69 22 -230 -5 -297 -24 -61 -78 -141
-124 -184 -38 -36 -122 -78 -171 -86 l-35 -5 39 73 c66 126 75 172 75 359 -1
182 -11 234 -69 345 -17 33 -33 64 -35 69 -5 13 61 -2 111 -24z m1448 -395 l0
-425 -95 0 -95 0 0 425 0 425 95 0 95 0 0 -425z m910 0 l0 -425 -105 0 -105 0
0 425 0 425 105 0 105 0 0 -425z m419 288 c0 -94 -3 -131 -9 -115 -25 62 -132
187 -200 234 -24 16 -21 17 93 17 l117 1 -1 -137z m1621 104 c58 -25 100 -81
100 -136 0 -44 -57 -101 -101 -101 -19 0 -46 8 -59 17 -49 33 -62 71 -44 131
13 46 9 78 -13 103 -12 15 -9 15 34 8 27 -4 64 -14 83 -22z m-5730 -397 l0
-420 -95 0 -95 0 0 420 0 420 95 0 95 0 0 -420z m1870 0 l0 -420 -100 0 -100
0 0 420 0 420 100 0 100 0 0 -420z m397 395 c137 -69 164 -269 52 -390 -22
-24 -50 -46 -62 -48 -16 -3 -14 -5 9 -6 55 -2 114 -95 114 -179 0 -56 28 -128
62 -162 l30 -30 -76 0 c-110 0 -178 28 -212 86 -15 26 -29 70 -34 107 -10 78
-32 129 -68 158 l-28 24 33 28 c52 46 87 129 87 207 0 55 -6 79 -31 131 -19
37 -44 71 -60 81 -28 17 -28 17 53 18 66 0 89 -4 131 -25z m863 -4 c84 -39
153 -122 192 -230 28 -77 30 -233 4 -311 -41 -122 -136 -227 -230 -254 -86
-25 -88 -23 -56 37 63 116 95 341 71 497 -16 105 -48 208 -78 254 l-25 39 38
-5 c22 -3 59 -15 84 -27z m1320 -391 l0 -420 -100 0 -100 0 0 420 0 420 100 0
100 0 0 -420z m388 400 c79 -35 132 -122 132 -216 0 -87 -59 -191 -124 -220
l-31 -13 31 -1 c56 0 100 -70 115 -182 13 -94 29 -133 67 -165 l27 -23 -75 0
c-97 0 -147 14 -189 53 -42 40 -61 84 -61 143 0 54 -21 103 -64 147 l-31 32
45 45 c50 50 70 105 70 191 0 85 -19 138 -66 186 l-43 43 75 0 c54 0 89 -6
122 -20z m502 -227 c36 -17 83 -36 105 -43 95 -30 221 -98 264 -141 54 -54 98
-145 107 -221 l7 -58 -159 66 c-88 36 -181 74 -208 85 -146 56 -272 202 -284
331 l-5 48 54 -19 c30 -10 83 -32 119 -48z m-1363 -156 c1 -153 0 -161 -15
-137 -25 38 -102 108 -134 121 -34 14 -36 25 -5 35 33 10 107 73 129 111 11
18 21 33 21 33 1 0 3 -73 4 -163z m143 -297 l0 -140 -119 0 -120 0 73 73 c89
89 124 132 142 175 8 17 16 32 19 32 3 0 5 -63 5 -140z m1159 -14 c57 -48 124
-86 186 -108 l50 -17 -177 -1 -178 0 0 131 0 131 38 -50 c20 -27 57 -66 81
-86z m-4931 -679 c8 -5 12 -35 12 -88 0 -75 -1 -80 -25 -89 -25 -10 -486 -13
-517 -4 -15 5 -18 18 -18 89 0 65 3 86 15 93 20 10 516 10 533 -1z m1279 0 c8
-9 6 -168 -3 -177 -11 -11 -964 -8 -971 3 -9 14 -14 116 -7 149 3 15 13 28 22
30 38 7 951 2 959 -5z m1140 0 c8 -9 6 -168 -3 -177 -3 -3 -190 -6 -415 -6
-470 -2 -429 -11 -429 100 0 43 5 69 14 79 13 12 79 14 420 13 222 0 408 -5
413 -9z m683 -13 c124 -36 236 -114 315 -221 81 -109 113 -141 170 -171 l50
-27 462 -3 c424 -3 464 -4 472 -20 11 -23 13 -134 2 -151 -8 -12 -82 -15 -433
-18 -260 -2 -450 1 -493 7 -140 21 -232 85 -355 247 -30 40 -80 90 -110 112
-85 60 -133 72 -290 73 -74 0 -143 2 -153 5 -16 4 -17 15 -15 91 l3 87 60 5
c101 8 257 0 315 -16z m1471 6 c11 -17 7 -156 -5 -167 -4 -5 -211 -8 -459 -9
l-452 0 -22 22 c-37 37 -26 86 31 129 49 37 82 40 519 40 325 0 379 -2 388
-15z m864 -3 c8 -12 11 -40 7 -90 -2 -39 -7 -74 -9 -77 -3 -3 -128 -6 -279 -7
-313 -1 -294 -7 -294 89 0 68 8 96 28 100 9 2 132 3 275 3 235 0 260 -2 272
-18z m-5437 -439 c16 -16 16 -154 0 -164 -13 -9 -503 -15 -530 -8 -15 5 -18
18 -18 88 0 45 3 86 7 89 3 4 124 7 268 7 190 0 264 -3 273 -12z m1278 1 c7
-11 7 -160 0 -167 -7 -7 -953 -10 -965 -3 -14 9 -23 126 -11 157 l10 24 479 0
c339 0 482 -3 487 -11z m1140 0 c9 -15 5 -152 -5 -162 -12 -12 -813 -17 -828
-5 -13 11 -18 132 -7 162 5 14 52 16 419 16 292 0 416 -3 421 -11z m683 -3
c35 -19 85 -75 111 -126 l20 -40 -22 0 c-13 0 -120 -2 -238 -5 -118 -2 -223
-2 -232 1 -15 5 -18 18 -18 95 l0 89 175 0 c134 0 183 -3 204 -14z m2341 -6
c10 -19 6 -148 -6 -159 -9 -9 -551 -7 -560 2 -15 14 -17 146 -4 162 10 13 56
15 286 15 261 0 274 -1 284 -20z m-5446 -426 c13 -5 16 -22 16 -83 0 -42 -4
-82 -8 -89 -7 -9 -69 -12 -278 -10 l-269 3 -3 79 c-2 44 -1 85 2 93 4 10 57
13 265 13 143 0 266 -3 275 -6z m694 -22 c34 -25 92 -115 92 -144 0 -17 -18
-18 -240 -18 l-239 0 -7 36 c-7 37 0 127 12 145 4 7 64 9 178 7 161 -3 173 -4
204 -26z m590 11 c5 -10 6 -52 3 -93 l-6 -75 -35 -3 c-78 -8 -181 46 -243 126
-20 27 -37 52 -37 56 0 3 70 6 155 6 137 0 155 -2 163 -17z m1137 -78 l0 -90
-414 -3 c-325 -2 -416 0 -423 10 -9 15 -11 139 -2 162 6 15 49 16 423 14 l416
-3 0 -90z m2155 74 c13 -23 7 -146 -7 -160 -5 -5 -393 -8 -924 -7 l-914 3 -3
79 c-2 44 -1 85 2 93 4 11 165 13 920 13 l915 0 11 -21z m871 -3 c8 -17 9 -46
3 -93 l-9 -68 -285 0 -285 0 -3 70 c-2 38 0 80 3 92 l5 23 280 0 280 0 11 -24z"/>
<path d="M1838 6040 c-25 -26 -29 -36 -24 -63 12 -57 36 -71 139 -79 123 -8
328 -8 401 1 44 5 64 13 77 30 21 26 24 78 6 102 -28 36 -52 39 -312 39 l-257
0 -30 -30z"/>
<path d="M4302 5843 c-7 -3 -19 -18 -28 -35 -20 -38 -10 -81 23 -108 23 -18
41 -20 192 -20 l167 0 30 33 c30 32 84 100 98 125 6 9 -43 12 -231 11 -131 0
-244 -3 -251 -6z"/>
<path d="M4840 5843 c0 -5 28 -42 63 -83 58 -69 66 -75 105 -78 l42 -3 0 85 0
86 -105 0 c-58 0 -105 -3 -105 -7z"/>
<path d="M2457 5490 c53 -85 131 -190 141 -190 10 0 100 122 149 199 l32 51
-53 0 c-51 0 -53 -1 -90 -50 l-38 -50 -39 50 c-38 48 -41 50 -89 50 l-50 0 37
-60z"/>
<path d="M3720 5450 c-72 -9 -86 -16 -100 -51 -15 -35 -7 -72 22 -99 21 -19
34 -20 389 -20 209 0 379 4 393 10 53 20 65 95 22 138 l-26 27 -323 1 c-177 1
-347 -2 -377 -6z"/>
<path d="M2886 5278 c26 -51 154 -238 162 -238 7 0 182 254 182 264 0 3 -20 6
-44 6 -40 0 -48 -4 -90 -51 -26 -29 -48 -50 -49 -48 -2 2 -20 25 -41 52 -36
45 -41 47 -87 47 l-50 0 17 -32z"/>
</g>
</svg>
