<svg version="1.0" width="278.667" height="278.667" viewBox="0 0 209 209" xmlns="http://www.w3.org/2000/svg"><path style="fill:#222222;" d="M110.424 153.536c-12.337-6.407-19.527-11.752-29.175-21.687-9.198-9.472-16.61-19.887-22.465-31.569-7.509-14.978-14.408-37.65-17.102-56.198-.619-4.26-1.917-16.882-1.753-17.05.233-.24 40.328 26.958 49.272 33.424 13.857 10.017 18.517 13.895 24.064 20.03 13.311 14.72 20.04 29.666 21.043 46.746.275 4.672-.298 13.009-1.012 14.717l-.543 1.298-.894-.833c-1.01-.94-2.887-4.52-4.79-9.131-4.793-11.616-15.406-27.511-25.24-37.803-8.622-9.025-27.92-23.566-31.274-23.566-1.913 0-1.68 2.65 1.017 11.594 7.565 25.084 17.405 42.001 36.254 62.33 4.902 5.286 9.38 10.352 9.38 10.612 0 .484-1.38-.11-6.782-2.914m28.209 15.002c-.333-.401-.382-1.556-.201-4.754.781-13.853 3.884-26.267 9.178-36.724 4.506-8.9 9.575-15.816 17.796-24.281 5.844-6.018 10.312-10.047 18.528-16.706 19.29-15.636 25.779-22.15 37.982-38.128 2.88-3.77 5.236-6.804 5.236-6.742.001.062.3 1.669.664 3.57 1.248 6.52 1.252 17.612.01 29.734-1.18 11.523-4.092 20.977-10.123 32.873-8.46 16.687-21.762 30.943-39.993 42.861-4.794 3.135-6.569 4.127-6.569 3.675 0-.166 1.05-1.505 2.334-2.976 12.14-13.914 20.103-26.455 25.678-40.447 3.26-8.178 4.701-13.34 3.726-13.34-1.067 0-10.507 5.821-15.295 9.432-10.061 7.586-21.355 19.588-28.052 29.81-6.188 9.446-14.321 26.64-14.321 30.28 0 1.734-1.034 2.392-3.76 2.392-1.714 0-2.502-.148-2.818-.53m-17.368 68.961c-.715-.377-3.438-2.41-6.05-4.518-9.71-7.833-17.11-11.938-34.516-19.148-8.184-3.39-10.516-4.515-13.625-6.572-8.194-5.42-12.806-14.305-17.764-34.217-3.17-12.733-4.477-23.337-2.875-23.337.5 0 7.49 5.795 16.963 14.063 12.162 10.615 22.844 19.106 34.446 27.38 18.877 13.462 25.757 20.523 31.35 32.175 2.046 4.263 3.916 9.446 3.916 10.853 0 .48-.393 1.34-.874 1.911-1.638 1.947-8.325 2.807-10.971 1.41" transform="scale(.75)"/><path style="fill:#FFFFF;stroke-width:.34574" d="M143.092 237.264c-.549-1.397-.108-6.618.883-10.458 1.893-7.338 5.546-16.229 9.223-22.449 6.556-11.088 21.323-24.98 36.036-33.902 10.435-6.328 36.432-18.667 41.22-19.566l1.27-.238-.244 2.207c-.433 3.908-1.888 11.379-3.46 17.765-4.57 18.566-11.324 33.849-19.71 44.6-2.718 3.486-8.472 9.043-13.837 13.364-4.197 3.38-9.048 6.862-9.56 6.862-.337 0 .481-1.85 4.131-9.335 5.891-12.082 14.929-38.85 13.58-40.22-.156-.158-.963.058-1.794.48-3.771 1.914-15.887 10.544-21.94 15.627-8.051 6.76-15.92 16.768-22.477 28.586-3.768 6.791-4.886 7.622-10.26 7.626-2.612.002-2.698-.025-3.061-.949M110.64 153.65c-12.384-6.425-18.302-10.758-28.01-20.51-10.138-10.186-16.767-19.2-23.058-31.354C51.342 85.882 44.45 63.42 41.5 42.872c-.489-3.406-1.706-15.7-1.569-15.841.06-.06 8.252 5.375 18.207 12.08 33.333 22.45 44.492 30.64 51.981 38.149 17.578 17.625 25.562 37.033 24.062 58.497-.204 2.92-.561 5.419-.886 6.195l-.543 1.301-.978-.936c-.967-.927-2.803-4.547-5.565-10.972-5.058-11.768-17.329-29.257-27.023-38.514-9.184-8.77-25.762-20.917-28.547-20.917-1.959 0-1.743 2.628.956 11.634 7.485 24.974 17.262 41.71 36.627 62.7 5.224 5.662 8.985 9.935 8.985 10.208 0 .474-1.379-.116-6.566-2.807m27.992 14.889c-.333-.401-.382-1.556-.201-4.754 1.095-19.413 6.528-35.292 16.867-49.294 5.705-7.725 15.05-17.243 24.83-25.289 15.807-13.003 18.64-15.483 25.258-22.105 7.232-7.237 8.832-9.1 17.054-19.853l4.656-6.088.346 1.636c1.097 5.18 1.211 6.556 1.211 14.602 0 21.39-2.647 33.53-10.858 49.786-8.345 16.523-21.172 30.457-39.048 42.416-4.45 2.977-7.607 4.78-7.607 4.345 0-.18 1.05-1.543 2.334-3.03 7.114-8.243 11.347-13.903 16.366-21.882 6.688-10.631 14.989-31.023 12.927-31.755-.462-.164-5.55 2.76-10.364 5.956-6.039 4.009-10.967 8.132-17.298 14.474-9.274 9.289-15.21 17.164-20.866 27.68-4.887 9.086-9.03 18.905-9.03 21.401 0 1.626-1.082 2.283-3.76 2.283-1.713 0-2.5-.148-2.817-.53m-17.62 68.783c-.854-.488-3.343-2.33-5.532-4.092s-4.835-3.822-5.881-4.576c-5.304-3.826-14.407-8.703-22.992-12.318-2.472-1.04-6.75-2.843-9.508-4.006s-6.258-2.818-7.78-3.679c-6.745-3.817-10.995-9.03-14.526-17.816-5.505-13.697-11.08-41.127-8.36-41.127.492 0 7.446 5.75 16.49 13.637 13.543 11.807 23.766 19.9 37.168 29.423 16.084 11.428 23.82 19.533 29.071 30.455 2.024 4.21 3.947 9.548 3.947 10.956 0 1.63-1.496 2.892-4.14 3.494-3.621.824-6.092.714-7.957-.351" transform="scale(.75)"/></svg>