<?xml version="1.0" encoding="UTF-8" standalone="no"?>
<svg
   version="1.0"
   width="209.000000pt"
   height="209.000000pt"
   viewBox="0 0 209.000000 209.000000"
   preserveAspectRatio="xMidYMid meet"
   id="svg1"
   sodipodi:docname="logo.svg"
   inkscape:version="1.3 (0e150ed6c4, 2023-07-21)"
   xmlns:inkscape="http://www.inkscape.org/namespaces/inkscape"
   xmlns:sodipodi="http://sodipodi.sourceforge.net/DTD/sodipodi-0.dtd"
   xmlns="http://www.w3.org/2000/svg"
   xmlns:svg="http://www.w3.org/2000/svg">
  <defs
     id="defs1" />
  <sodipodi:namedview
     id="namedview1"
     pagecolor="#ffffff"
     bordercolor="#000000"
     borderopacity="0.25"
     inkscape:showpageshadow="2"
     inkscape:pageopacity="0.0"
     inkscape:pagecheckerboard="0"
     inkscape:deskcolor="#d1d1d1"
     inkscape:document-units="pt"
     inkscape:zoom="2.8923445"
     inkscape:cx="139.16046"
     inkscape:cy="139.33333"
     inkscape:window-width="1920"
     inkscape:window-height="1002"
     inkscape:window-x="-8"
     inkscape:window-y="-8"
     inkscape:window-maximized="1"
     inkscape:current-layer="svg1" />
  <path
     style="fill:#ffffff;stroke-width:0.34574"
     d="M 110.42436,153.5356 C 98.087299,147.12853 90.897267,141.78393 81.248966,131.84853 72.051456,122.37733 64.639727,111.96239 58.783767,100.28048 51.275316,85.302062 44.376051,62.630243 41.681963,44.081886 41.063159,39.821525 39.765258,27.199933 39.928725,27.032321 c 0.233747,-0.239674 40.328433,26.95813 49.272268,33.423319 13.857177,10.016871 18.517357,13.895814 24.063907,20.029786 13.31116,14.720923 20.03917,29.666764 21.04359,46.746994 0.27472,4.67172 -0.29896,13.00818 -1.01274,14.71649 l -0.54231,1.29793 -0.89419,-0.8331 c -1.00957,-0.94059 -2.8874,-4.52018 -4.79002,-9.13086 -4.79333,-11.6159 -15.406,-27.51119 -25.23943,-37.802736 C 93.206591,86.45521 73.908637,71.913978 70.554675,71.913978 c -1.912712,0 -1.680207,2.650148 1.017211,11.594397 7.564749,25.083615 17.404825,42.000845 36.254294,62.329015 4.90185,5.28638 9.37978,10.35271 9.37978,10.61228 0,0.48415 -1.38016,-0.1089 -6.7816,-2.91407 z"
     id="path2"
     transform="scale(0.75)" />
  <path
     style="fill:#ffffff;stroke-width:0.34574"
     d="m 138.63292,168.53762 c -0.33264,-0.40081 -0.38148,-1.55532 -0.20107,-4.75392 0.78129,-13.85221 3.88415,-26.26701 9.17856,-36.72415 4.50564,-8.89923 9.57441,-15.81518 17.79555,-24.28065 5.8444,-6.018103 10.31208,-10.04644 18.52787,-16.705906 19.29033,-15.636139 25.77874,-22.149472 37.98218,-38.128086 2.87945,-3.77021 5.23582,-6.804081 5.2364,-6.741936 5.8e-4,0.06214 0.29902,1.668823 0.6632,3.570394 1.24877,6.520321 1.25273,17.611834 0.0106,29.733665 -1.18078,11.523281 -4.09188,20.976847 -10.12278,32.872969 -8.45955,16.6867 -21.76216,30.94338 -39.99295,42.86125 -4.7945,3.13428 -6.56906,4.12699 -6.56906,3.67481 0,-0.16602 1.05019,-1.50541 2.33375,-2.97642 12.14027,-13.91322 20.10243,-26.45465 25.67824,-40.44654 3.25907,-8.17829 4.70064,-13.340081 3.72556,-13.340081 -1.06705,0 -10.50741,5.821311 -15.29535,9.431751 -10.06091,7.58661 -21.35434,19.58805 -28.05117,29.80977 -6.18866,9.44606 -14.32155,26.64131 -14.32155,30.27982 0,1.73506 -1.0336,2.39264 -3.76081,2.39264 -1.71334,0 -2.50063,-0.14794 -2.81719,-0.52938 z"
     id="path3"
     transform="scale(0.75)" />
  <path
     style="fill:#ffffff;stroke-width:0.34574"
     d="m 121.26503,237.4983 c -0.71494,-0.3774 -3.43765,-2.41076 -6.05046,-4.51858 -9.70867,-7.83223 -17.10959,-11.93804 -34.515414,-19.14814 -8.184554,-3.39032 -10.516205,-4.51493 -13.625541,-6.5719 -8.193295,-5.42024 -12.805889,-14.30508 -17.763701,-34.21667 -3.170363,-12.73283 -4.47696,-23.33747 -2.875407,-23.33747 0.500343,0 7.491355,5.79589 16.963845,14.06386 12.161485,10.61503 22.843678,19.1059 34.446148,27.37992 18.87649,13.46132 25.7569,20.52292 31.34929,32.17485 2.04591,4.26272 3.91622,9.44585 3.91622,10.85291 0,0.48029 -0.39309,1.34041 -0.87352,1.91138 -1.63832,1.94703 -8.32589,2.80639 -10.97146,1.40984 z"
     id="path4"
     transform="scale(0.75)" />
  <path
     style="fill:#ffffff;stroke-width:0.34574"
     d="m 143.09181,237.26427 c -0.54853,-1.39712 -0.10768,-6.61871 0.88301,-10.45865 1.89312,-7.33778 5.54608,-16.22844 9.22346,-22.44828 6.55597,-11.08864 21.32224,-24.98074 36.03581,-33.9025 10.43532,-6.32759 36.43237,-18.66727 41.22027,-19.56548 l 1.27016,-0.23829 -0.24435,2.20672 c -0.43275,3.90809 -1.88775,11.37896 -3.45985,17.76504 -4.57065,18.56652 -11.3242,33.84894 -19.70971,44.6005 -2.71862,3.48571 -8.47241,9.04233 -13.83747,13.36329 -4.19748,3.3806 -9.04768,6.86251 -9.55929,6.86251 -0.33808,0 0.4801,-1.84927 4.13012,-9.33499 5.89102,-12.08171 14.92895,-38.8507 13.57946,-40.22032 -0.1557,-0.15802 -0.96283,0.0578 -1.79363,0.47959 -3.77107,1.91458 -15.88635,10.54416 -21.93945,15.62723 -8.05155,6.76126 -15.92032,16.76879 -22.47718,28.58655 -3.76797,6.7912 -4.88584,7.62208 -10.26002,7.62593 -2.61217,0.002 -2.69859,-0.0249 -3.06134,-0.94885 z"
     id="path5"
     transform="scale(0.75)" />
</svg>
