<?xml version="1.0" encoding="UTF-8"?>
<svg width="1200pt" height="1200pt" version="1.1" viewBox="0 0 1200 1200" xmlns="http://www.w3.org/2000/svg">
 <path d="m670.71 806.63s31.039-14.055 6.4414-62.082c-24.59-48.02-55.051-50.961-55.051-103.66 0 0-40.426 103.66-5.8672 145.24-0.011719 0.003906 18.738 36.312 54.477 20.504z"/>
 <path d="m712.57 715.65s31.734-12.414 9.6758-61.648c-22.059-49.246-52.305-53.773-49.555-106.41 0 0-45.777 101.42-13.445 144.75 0 0.007812 16.809 37.234 53.324 23.312z"/>
 <path d="m756.28 627.09s32.09-11.484 11.492-61.352c-20.598-49.875-50.711-55.293-46.414-107.81 0 0-48.742 100.02-17.68 144.29 0-0.007813 15.703 37.719 52.602 24.875z"/>
 <path d="m805.46 534.04s31.641-12.664 9.1953-61.734c-22.434-49.07-52.727-53.363-50.383-106.01 0 0-45 101.77-12.32 144.85 0.007813 0 17.105 37.098 53.508 22.895z"/>
 <path d="m846.94 442.93s32.297-10.867 12.664-61.117c-19.633-50.258-49.648-56.25-44.336-108.68 0 0-50.645 99.066-20.457 143.93 0.003906-0.007813 14.996 38 52.129 25.875z"/>
 <path d="m751.04 774.66c-52.988 10.117-45 43.219-45 43.219 9.5078 37.902 49.66 30.355 49.66 30.355 54.039 1.6875 110.95-93.91 110.95-93.91-41.551 32.422-62.605 10.191-115.61 20.336z"/>
 <path d="m752.07 728.95c11.484 37.34 51.18 27.703 51.18 27.703 54.066-1.125 105.88-99.57 105.88-99.57-39.824 34.508-61.977 13.453-114.39 26.336-52.398 12.875-42.668 45.531-42.668 45.531z"/>
 <path d="m795.05 640.01c12.562 36.992 51.965 26.211 51.965 26.211 54-2.7266 102.91-102.66 102.91-102.66-38.773 35.68-61.555 15.262-113.55 29.68-52.012 14.402-41.324 46.766-41.324 46.766z"/>
 <path d="m881.2 498.82c-52.492 12.477-43.012 45.215-43.012 45.215 11.176 37.426 50.953 28.125 50.953 28.125 54.066-0.72266 106.65-98.785 106.65-98.785-40.078 34.238-62.082 12.965-114.59 25.445z"/>
 <path d="m884.53 455.32c13.273 36.73 52.461 25.191 52.461 25.191 53.934-3.75 100.92-104.62 100.92-104.62-38.09 36.43-61.266 16.445-112.97 31.848-51.703 15.422-40.414 47.578-40.414 47.578z"/>
 <path d="m613.77 931.46 24.777 10.051c20.102-36.148 66.977-83.023 66.977-83.023l-56.258-34.172c1.3164 38.859-35.496 107.14-35.496 107.14z"/>
 <path d="m974.12 386.14c23.316-30.496 73.547-149.77 73.547-149.77-39.469 77.129-96.863 149.77-96.863 149.77z"/>
 <path d="m920.2 178.75s-67.059 110.68-78.055 147.46l13.688 18.871c0 0.007812 25.105-89.102 64.367-166.33z"/>
 <path d="m945.9 266.77c-21.449 11.531-48.395 33.582-64.367 61.707-18.59 32.738 14.879 59.961 15.863 60.75l-0.019531 0.007812 0.066406 0.027344 0.046875 0.046875 0.019531-0.046875c1.2383 0.27344 43.594 8.3984 56.652-26.934 11.793-31.82 10.695-68.652 5.0352-92.504l45.422-104.32z"/>
 <path d="m521.2 945.84s3.1797-28.867-42.75-31.68c-45.898-2.793-61.305 18.273-99.977-4.6016 0 0 58.539 74.664 104.04 67.359 0.003907-0.007813 34.766 2.0078 38.684-31.078z"/>
 <path d="m472.61 875.62s4.6797-28.695-41.035-33.871c-45.711-5.1953-62.164 15.039-99.609-9.8438 0 0 54.543 77.625 100.39 72.723 0 0 34.613 3.8242 40.258-29.008z"/>
 <path d="m426.59 805.1s5.5117-28.52-40.031-35.043c-45.535-6.5547-62.578 13.211-99.262-12.758 0 0 52.258 79.211 98.203 75.617 0 0 34.5 4.8359 41.09-27.816z"/>
 <path d="m379.68 728.62s4.4336-28.715-41.297-33.535c-45.75-4.8555-62.07 15.496-99.676-9.0664 0 0 55.133 77.164 100.95 71.914-0.007812 0.003906 34.641 3.5742 40.023-29.312z"/>
 <path d="m330.82 658.65s6.0469-28.434-39.348-35.832c-45.422-7.4141-62.84 12-99.008-14.664 0 0 50.711 80.184 96.711 77.504 0.011718 0.003906 34.418 5.5156 41.645-27.008z"/>
 <path d="m532.61 872.99c-15.582 43.293 12.195 51.805 12.195 51.805 31.922 9.4766 43.836-23.258 43.836-23.258 24.695-38.914-20.766-122.2-20.766-122.2 5.7383 44.586-19.695 50.383-35.266 93.648z"/>
 <path d="m499.51 852.41c32.371 7.7812 42.543-25.52 42.543-25.52 22.641-40.152-27.102-120.93-27.102-120.93 8.043 44.195-17.035 51.328-30.336 95.371-13.285 44.047 14.895 51.078 14.895 51.078z"/>
 <path d="m452.91 782.26c32.598 6.8516 41.785-26.746 41.785-26.746 21.449-40.809-30.637-120.07-30.637-120.07 9.3359 43.941-15.523 51.805-27.523 96.195-12.004 44.422 16.375 50.625 16.375 50.625z"/>
 <path d="m386.71 657.76c-13.648 43.922 14.492 51.18 14.492 51.18 32.316 8.043 42.758-25.191 42.758-25.191 22.93-39.965-26.184-121.13-26.184-121.13 7.7266 44.277-17.445 51.195-31.066 95.145z"/>
 <path d="m356.22 636.42c32.738 6.207 41.258-27.543 41.258-27.543 20.672-41.223-32.945-119.48-32.945-119.48 10.191 43.762-14.523 52.086-25.68 96.723-11.125 44.625 17.367 50.297 17.367 50.297z"/>
 <path d="m588.09 1041.8 18.141-13.82c-17.805-30.441-31.867-85.199-31.867-85.199l-49.473 26.465c29.074 15.883 63.199 72.555 63.199 72.555z"/>
 <path d="m344.34 540.64c-12.262-30.348-77.973-118.97-77.973-118.97 39.461 62.438 67.855 136.1 67.855 136.1z"/>
 <path d="m168.77 490.18s52.117 97.266 74.316 121.31l19.801-1.8555c0.007812-0.007813-54.48-57.102-94.117-119.46z"/>
 <path d="m244.52 509.54c-0.84375 20.746 3.6367 50.09 17.336 74.023 15.945 27.863 50.457 15.113 51.477 14.738v0.007813l0.039063-0.027344 0.054687-0.019531-0.019531-0.019531c0.73047-0.80469 25.086-28.332 4.8359-53.27-18.227-22.461-45.75-37.66-65.699-43.855l-56.84-78.617z"/>
</svg>
