<?xml version="1.0" encoding="UTF-8"?>
<svg width="1200pt" height="1200pt" version="1.1" viewBox="0 0 1200 1200" xmlns="http://www.w3.org/2000/svg">
 <path d="m251.32 952.59c0 2.7344 3.9102 5.4727 9.1211 6.3828 5.6055 0.91016 5.8672 1.1758 6.7812 6.6484 1.043 6.2539 5.3398 11.855 8.9883 11.855 1.3086 0 5.3398-1.1758 9-2.6055 6.2539-2.4727 14.34-3.3828 15.898-1.8242 0.39453 0.39453-0.13281 3.3828-1.043 6.7812-3.2656 10.691 1.5586 18.504 11.473 18.504 3.9102 0 6.1211-1.1758 12.254-6.5156 4.043-3.6484 7.5586-6.3828 7.8242-6.2539 0.13281 0.26562-0.64844 4.043-1.6914 8.4727-2.3398 9.6484-1.4297 16.43 2.8672 20.723 1.6914 1.6914 4.6914 3.1328 6.6484 3.1328 3.3828 0 5.0898-1.5586 16.68-14.207 5.3398-6 7.6914-4.957 9 3.7812 1.1758 9 4.4297 13.559 9.7812 14.074 3.5156 0.39453 5.0898-0.51562 10.297-6.2539 3.3828-3.6484 6.9102-6.3828 7.957-6.2539 1.1758 0.26562 2.6055 3 3.3828 6.1328 0.78125 3.1328 2.4727 6.3828 3.6484 7.1641 2.2188 1.3086 3 1.1758 18.121-3.3828 9.5156-3 9.6484-1.8242 2.4727 18.637-5.8672 16.812-8.8672 27.77-19.164 70.262-1.8242 7.5586-4.4297 17.207-5.8672 21.504-2.4727 7.4297-2.4727 7.8242-0.13281 9.5156 2.6055 1.957 11.605 1.3086 16.164-1.1758 4.2969-2.2188 7.2969-11.074 9.6484-27.887 1.1758-8.6055 4.043-23.328 6.5156-32.594 6.6484-25.031 21.898-72.863 24.238-75.469 0.51562-0.64844 3.7812-0.64844 7.1641-0.13281 7.8242 1.1758 12.121 5.4727 16.031 16.164 3 7.8242 9.3828 15.77 12.781 15.77 0.91016 0 3.3828-1.5586 5.2188-3.3828 3-3 3.2656-4.043 2.6055-10.43-0.64844-6.1211-0.39453-7.1641 1.3086-6.7812 1.1758 0.26562 4.6914 4.4297 7.6914 9.5156 6.3828 10.43 11.34 14.988 16.43 14.988 5.7344 0 6.7812-3.6484 4.2969-14.988-3.2656-14.34 0.26562-16.43 5.8672-3.5156 3.7812 8.4727 10.691 16.297 16.812 19.031 4.8242 2.2188 5.4727 2.3516 8.4727 0.39453 3.9102-2.6055 5.3398-8.3398 3.5156-14.723-1.043-3.6484-0.91016-5.207 0.13281-5.8672 2.6055-1.5586 5.8672 1.043 12.121 9.9102 7.2969 10.164 11.473 13.68 16.43 13.68 6.2539 0 7.4297-4.957 4.4297-17.207l-0.91016-3.6484 11.207 5.3398c13.297 6.2539 21.898 7.6914 27.898 4.5586 6-3.1328 6.7812-7.8242 2.0898-12.77-2.0898-2.0898-6.5156-5.3398-10.031-7.043-6.5156-3.3828-7.2969-4.957-4.1758-9.1211 2.8672-3.7812 2.3398-5.4727-2.3516-8.3398-3.2656-2.0898-6.5156-2.6055-15.637-2.6055-11.34 0-13.691-1.043-9.9102-4.8242 0.78125-0.78125 1.1758-3.3828 0.91016-5.7344-0.26562-3.6484-1.3086-4.8242-5.4727-6.9102-4.957-2.4727-5.0898-2.4727-13.559 0.39453-4.6914 1.5586-9 2.3516-9.6484 1.6914-0.51563-0.51563-0.39453-3 0.39453-5.3398 1.957-5.7344 0-10.031-5.2188-11.207-4.2969-0.91016-8.8672 1.043-15.121 6.3828-4.1758 3.6484-8.207 5.3398-9.5156 4.1758-0.39453-0.39453-1.6914-3.5156-2.7344-6.9102-2.3516-6.9102-5.8672-9.5156-13.031-9.5156-3.7812 0-5.6055 1.1758-10.691 6.5156-3.3828 3.5156-6.9102 6.5156-7.957 6.5156-1.043 0-3.5156-1.8242-5.3398-3.9102-1.957-2.2188-4.5586-3.9102-6-3.9102-4.2969 0-13.031 7.6914-20.207 17.988-6.2539 8.8672-12.516 16.164-12.516 14.473 0-0.39453 2.7344-7.043 6-14.855 3.2656-7.957 7.043-17.074 8.3398-20.461 1.4297-3.2656 7.4297-16.031 13.559-28.152l11.074-22.164 6.2539 1.957c14.074 4.1758 19.43 7.8242 27.371 19.031 9.3828 13.164 16.945 19.164 23.855 19.164 6.9102 0 9.1211-2.6055 9.1211-10.559 0-8.7344 2.4727-8.3398 9 1.1758 7.4297 11.074 14.723 17.207 20.34 17.207 8.8672 0 11.855-6.9102 7.8242-18.383-2.0898-5.6055-1.3086-8.3398 2.0898-7.0312 1.043 0.38281 5.4727 5.8672 9.9102 12.254 9.1211 13.031 14.723 16.945 20.461 14.34 3.6484-1.6914 6.7812-7.957 5.2188-10.559-0.51562-0.91016 2.0898 1.043 5.7344 4.5586 8.3398 7.6914 12.383 9.3828 16.945 7.1641 5.8672-3 6.3828-5.3398 3.2656-14.34-1.6914-4.4297-2.7344-8.207-2.4727-8.4727 1.3086-1.3086 5.3398 2.0898 11.855 10.031 7.1641 8.7344 13.297 13.031 18.898 13.031 3.1328 0 7.957-2.2188 9.3828-4.4297 1.5586-2.2188 1.1758-9.2539-0.51562-10.945-2.2188-2.2188-0.91016-1.957 6.1328 1.043 12.383 5.3398 21.371 2.2188 19.547-6.7812-1.4297-6.9102-4.1758-10.031-12.121-13.812l-7.4297-3.5156v-8.8672c0-8.207-0.26562-9.2539-3.6484-12.121-4.8242-4.043-10.945-4.043-19.164 0.13281s-10.031 4.1758-6.6484-0.13281c2.7344-3.3828 3.6484-10.297 1.6914-13.031-1.5586-2.4727-6.3828-4.4297-10.824-4.4297-3.2656 0-5.4727 1.3086-9.6484 5.6055-8.3398 8.7344-9.7812 8.7344-9.7812 0.13281 0-9.5156-3.6484-13.559-12.383-13.559-5.2188 0-6.7812 0.64844-12.121 5.6055-11.074 10.297-16.031 12.648-12.648 6.1211 4.4297-8.7344 0.64844-15.637-8.4727-15.637-6.7812 0-11.605 2.6055-17.207 9.1211-2.4727 2.8672-6.6484 6-9.2539 7.1641l-4.6914 1.957-0.39453-6.1328c-0.39453-5.3398-1.043-6.5156-4.8242-9.1211-3-1.957-6.3828-3-10.297-3-6.1211 0-4.957-0.91016-20.207 15.254-5.8672 6.2539-21.504 14.605-29.328 15.637-3 0.39453-5.4727 0.26563-5.4727-0.13281 0-1.4414 27.637-52.273 37.152-68.566 4.4297-7.5586 10.164-17.594 12.898-22.547 4.4297-8.0742 5.2188-8.7344 9.1211-8.7344 6.6484 0 10.297 5.7344 13.945 22.164 1.957 8.8672 4.1758 13.559 7.957 16.164 3.9102 2.7344 7.043 2.6055 10.164-0.51562 3-3 3.5156-14.074 1.1758-22.547-2.7344-9.9102-0.26562-7.4297 6.9102 7.043 7.8242 15.898 13.559 22.812 20.207 24.121 3.1328 0.64844 4.6914 0.13281 6.7812-1.957 2.4727-2.4727 2.7344-4.1758 2.6055-14.473-0.39453-17.855 0.91016-17.594 11.34 2.6055 7.8242 15.383 12.781 20.855 18.898 20.855 9.3828 0 11.207-4.1758 8.207-19.547-1.043-5.8672-1.6914-11.074-1.3086-11.473 1.5586-1.4414 4.957 3.2539 10.031 13.945 5.7344 12.254 8.7344 16.031 14.34 18.383 9.3828 3.9102 14.855-3.1328 13.559-17.34-0.78125-7.5586-0.64844-7.957 1.3086-5.4727 1.1758 1.4414 4.5586 7.1758 7.4297 12.781 5.8672 11.34 9.1211 14.074 16.164 14.34 6.6484 0.13281 8.7344-3 7.5586-11.734-1.043-9 0.91016-9 5.7344-0.13281 4.4297 8.4727 9.6484 14.074 13.031 14.074 1.4414 0 4.2969-1.6914 6.1211-3.7812 3.5156-3.6484 3.7812-3.7812 14.34-3 9.7812 0.51562 10.945 0.38281 13.559-2.2188 2.2188-2.2188 2.4727-3.3828 1.4297-5.3398-1.957-3.6484-8.9883-8.4727-15.383-10.43-6-1.8242-6.5156-2.7344-3.3828-5.3398 3.6484-3 4.6914-7.6914 2.4727-11.074-1.5586-2.4727-3.1328-3.1328-7.4297-3.1328-3 0-7.2969 0.64844-9.7812 1.5586-5.4727 1.957-6.6484 0.64844-3.7812-4.4297 1.3086-2.2188 2.8672-6 3.5156-8.6055 0.91016-4.043 0.51562-5.0898-2.7344-8.207-2.0898-2.0898-4.8242-3.7812-6.2539-3.7812-1.3086 0-5.0898 2.8672-8.3398 6.5156-3.2656 3.5156-6.5156 6.5156-7.2969 6.5156s-0.26562-3.2656 1.4414-7.957l2.8672-7.8242-3.1328-2.6055c-4.8242-4.043-11.34-3-17.723 2.8672-2.4727 2.2188-9.7812 4.8242-9.7812 3.3828 0-0.26562 0.91016-2.7344 1.957-5.2188 2.8672-6.7812 2.4727-9.7812-1.8242-14.074-2.8672-2.7344-5.0898-3.7812-8.6055-3.7812-4.1758 0-6 1.1758-13.559 8.4727-8.6055 8.3398-14.207 10.945-12.781 6.1211 4.6914-16.43 4.4297-20.34-2.0898-23.461-3-1.4297-4.2969-1.3086-9.2539 0.78125-3.1328 1.4414-8.207 5.3398-11.34 8.7344-10.559 11.207-18.898 14.074-15.516 5.3398 3-8.0742 0.78125-13.812-6.2539-15.504-4.5586-1.043-11.34 1.4297-16.164 6-6.2539 6-12.898 11.34-14.207 11.34-0.64844 0-1.1758-1.4297-1.1758-3.2539s-1.043-3.7812-2.4727-4.5586c-5.3398-2.7344-8.4727-1.4414-16.43 6.9102-7.4297 7.8242-17.207 15.77-16.164 13.164 0.51562-1.1758 7.6914-14.074 22.031-39.625 3.3828-6.1211 10.164-19.43 14.988-29.723 6.1328-12.781 9.3828-18.121 10.297-17.207 0.64844 0.64844 2.3398 1.3086 3.6484 1.3086 5.4727 0 9.6484 3.7812 13.812 12.121 4.6914 9.9102 9.2539 13.945 15.383 13.945 3.2656 0 5.0898-0.91016 7.1641-3.9102 1.5586-2.0898 3.3828-3.5156 4.043-3.1328 0.66016 0.38281 3.1328 4.6914 5.4727 9.3828 5.4727 10.824 8.6055 13.812 14.605 13.812 6.2539 0 8.4727-2.8672 10.164-13.164 0.78125-4.8242 1.957-8.8672 2.7344-8.8672 0.64844 0 3.7812 6.1211 6.7812 13.559 6.3828 15.898 8.8672 18.898 15.383 18.898 7.043 0 9.2539-3.3828 9.6484-15.516 0.13281-1.4414 0.64844-3.3828 1.3086-4.4297 1.957-3 4.8242 0.26562 9.7812 10.824 5.6055 11.988 8.4727 15.383 13.031 15.383 5.8672 0 7.957-3.1328 7.8242-11.988-0.13281-5.8672 0.26562-7.8242 1.6914-7.8242 2.0898 0 7.2969 10.957 10.164 21.121 5.4727 20.34 20.074 21.898 22.414 2.3516l0.78125-7.043 2.8672 8.4727c4.1758 12.254 6.6484 16.559 11.207 18.77 7.957 4.1758 14.34 0.13281 16.031-10.164 1.043-6 2.4727-5.3398 6 2.7344 4.4297 9.9102 12.781 17.207 19.812 17.207 4.5586 0 8.8672-3.5156 8.8672-7.2969 0-2.7344 0.51562-3.1328 5.207-3.1328 4.957 0 10.43-3.3828 10.43-6.3828 0-3.3828-3.2656-9.1211-8.0742-14.074l-5.4727-5.6055 2.8672-3c3.7812-4.043 3.6484-8.8672-0.39453-12.648-2.7344-2.6055-5.0898-3.2539-14.34-3.7812-13.031-0.91016-14.723-2.0898-11.734-7.957 5.0898-9.9102-2.0898-15.121-18.504-13.691l-9.6484 0.91016 0.91016-3.3828c1.043-4.4297-0.39453-11.867-2.8672-14.473-3.6484-3.5156-9.9102-2.3398-17.473 3.2656-10.164 7.5586-10.824 7.2969-9.7812-5.0898 0.78125-9.3828 0.64844-10.559-1.8242-13.031-1.5586-1.5586-4.1758-2.7344-6.1328-2.7344-3 0-11.988 5.4727-21.77 13.297-4.6914 3.7812-7.1641 1.8242-4.957-4.2969 2.0898-6.1211 1.8242-14.207-0.78125-17.074-1.4414-1.5586-3.9102-2.3398-8.0742-2.3398-5.4727 0-6.3828 0.51562-12.516 6.9102-3.5156 3.9102-7.5586 7.4297-9 7.957-3.3828 1.1758-6-1.4414-6-6 0-2.4727-1.3086-5.2188-3.7812-7.6914-4.957-4.957-12.781-5.2188-20.34-0.51562-9.7812 5.8672-17.473 9.7812-19.68 9.7812-1.1758 0-3.5156-1.1758-5.3398-2.6055-4.6914-3.6484-9-3.2539-18.637 2.0898-4.6914 2.4727-11.207 5.7344-14.473 7.043l-5.8672 2.3398 7.2969-14.473c4.043-8.0898 13.297-27.121 20.594-42.492l13.43-27.77 4.8242 0.64844c7.2969 1.3086 14.605 7.2969 22.164 18.637 3.9102 6 8.7344 11.34 11.34 12.898l4.4297 2.6055 3.6484-2.7344c2.8672-2.2188 3.7812-4.043 4.2969-9.1211 0.51562-5.3398 1.1758-6.5156 3.5156-6.7812 2.3398-0.39453 3.6484 1.3086 8.0742 10.43 6 12.516 7.5586 14.605 12.516 17.207 3.2656 1.6914 4.1758 1.6914 7.2969 0 4.6914-2.3516 7.6914-6.7812 7.6914-11.074 0-1.8242 0.39453-3.7812 0.78125-4.1758 1.4414-1.4297 5.7344 1.6914 5.7344 4.043 0 3.5156 5.8672 14.988 9.2539 17.988 9.1211 8.207 18.121 2.3516 18.121-11.734 0-11.473 3.6484-8.4727 9.7812 8.3398 6.3828 17.074 18.121 25.547 25.414 18.254 2.0898-2.0898 2.6055-4.3086 2.6055-10.945 0-13.945 2.3398-12.898 16.031 7.6914 13.945 20.988 24.371 26.594 29.062 15.516 1.043-2.3516 1.8242-6.7812 1.8242-9.6484 0-7.8242 3.1328-6.5156 10.164 4.043 8.6055 12.898 17.723 17.473 23.074 11.605 2.2188-2.4727 2.3398-3.3828 0.91016-8.6055-0.91016-3.1328-1.5586-6.3828-1.5586-7.043 0-2.2188 3.6484-1.4297 10.43 1.957 8.207 4.1758 13.031 4.1758 18.121-0.13281 4.1758-3.5156 4.957-6.7812 2.7344-11.074-1.1758-2.0898-0.78125-2.7344 3.1328-4.6914 2.4727-1.1758 4.8242-2.8672 5.207-3.9102 1.043-2.6055-3.9102-6.9102-8.0742-6.9102-4.5586 0-6.7812-2.0898-6.7812-6.5156 0-1.8242-0.91016-5.6055-1.8242-8.4727-1.5586-4.6914-2.3398-5.207-6.5156-5.6055-3.3828-0.26562-6.7812 0.78125-12.898 4.1758-4.5586 2.6055-9.3828 4.6914-10.559 4.6914-3.2656 0-3.9102-3.1328-1.5586-7.6914 2.4727-4.6914 2.7344-11.988 0.51562-14.207-3.1328-3.1328-10.559-1.6914-19.945 3.7812-5.0898 2.8672-10.559 5.4727-12.383 5.4727-3.5156 0.26562-3.6484-0.78125-1.8242-12.898 1.4414-10.164-5.7344-12.383-19.031-5.7344-8.207 4.1758-17.473 6.2539-18.637 4.2969-0.39453-0.64844 1.3086-4.043 3.7812-7.5586 2.3516-3.5156 4.4297-7.6914 4.4297-9.3828 0-4.1758-5.6055-9.5156-9.7812-9.5156-4.4297 0-18.637 6-23.328 10.031-2.0898 1.6914-4.957 3-6.5156 2.7344-2.3516-0.39453-2.8672-1.5586-3.3828-7.4297-1.3086-11.867-7.5586-13.559-23.328-6-5.2188 2.4727-9.7812 4.5586-10.164 4.5586-0.38281 0-0.39453-1.3086 0-2.8672 1.043-3.6484-1.957-10.559-5.7344-13.297-5.7344-4.043-15.516-2.0898-21.254 4.3086-2.7344 3.1328-7.957 3.6484-9 1.043-1.1758-3.1328-9.7812-6.3828-14.074-5.4727-2.0898 0.51562-7.5586 4.043-11.988 7.957-4.4297 3.9102-12.254 9.6484-17.473 12.77l-9.3828 5.7344 6.9102-13.945c3.9102-7.5586 11.473-23.988 17.074-36.371 5.6055-12.254 10.824-22.414 11.734-22.414 3.1328 0 13.559 7.8242 19.031 14.473 11.473 13.812 14.988 16.812 19.297 16.812 6.3828 0 9.1211-2.0898 10.691-8.4727 0.78125-3.2656 1.957-5.8672 2.4727-5.8672 1.5586 0 4.8242 4.3086 8.3398 11.34 1.8242 3.7812 5.2188 9 7.5586 11.605 3.7812 4.2969 4.6914 4.6914 9.2539 4.043 5.7344-0.78125 8.3398-3.5156 9.5156-10.164 1.8242-10.824 4.6914-10.164 13.691 3.5156 6.6484 9.7812 11.34 13.559 17.594 13.559 6.3828 0 8.8672-3.7812 7.8242-11.734-1.1758-9 0.91016-8.4727 9 2.0898 8.7344 11.473 12.898 14.855 18.254 14.855 8.4727 0 10.824-7.043 5.7344-17.34l-2.6055-5.4727 6.9102 7.1641c9.6484 10.031 13.945 13.031 18.637 13.031 6.3828 0 9-2.6055 7.957-7.957-0.51562-2.4727-1.043-5.6055-1.1758-7.043-0.51562-4.6914 4.6914-3.6484 13.945 2.6055 10.824 7.4297 16.43 8.7344 19.414 4.4297 1.5586-2.0898 1.957-4.4297 1.3086-7.957l-0.78125-4.957 8.3398 3.9102c9.5156 4.4297 11.855 4.8242 14.855 1.6914 2.2188-2.0898 2.2188-7.6914 0-14.34-0.78125-2.3398-0.13281-3.1328 3.6484-4.6914 4.4297-1.957 8.7344-6.5156 8.7344-9.6484 0-2.7344-4.043-5.6055-7.957-5.6055-3.2656 0-3.7812-0.51562-3.7812-3.6484 0-7.8242-7.043-9.8984-17.988-5.3398-5.6055 2.3516-8.3398 0.51563-9.9102-6.5156-0.78125-3.5156-2.3398-6.2539-4.2969-7.5586-3.7812-2.4727-6.1328-1.5586-19.031 7.1641l-9 6.1211-2.4727-3.1328c-1.5586-1.957-2.4727-5.0898-2.4727-8.7344 0-7.0312-4.043-11.988-10.43-13.031-3.9102-0.64844-6.7812 0.39453-17.34 5.8672-7.043 3.6484-12.898 6.6484-13.164 6.6484s-0.91016-1.957-1.3086-4.4297c-0.51562-2.4727-1.957-5.8672-3.2656-7.5586-3.6484-4.4297-11.855-3.6484-24.371 1.957l-10.031 4.5586-2.0898-4.043c-4.5586-9-16.031-9.7812-24.898-1.6914-6.1328 5.4727-7.2969 5.6055-13.691 1.957-3.7812-2.2188-6.1328-2.7344-13.031-2.2188-7.4297 0.39453-9 1.043-15.898 6.3828-8.207 6.5156-12.383 8.8672-22.414 12.898l-6.6484 2.6055 6.5156-12.898c7.2969-14.605 20.594-45.625 23.988-55.922 1.957-5.7344 2.7344-6.7812 5.4727-6.7812 5.2188 0 10.031 3.2656 16.812 11.34 9.7812 11.867 13.559 14.734 19.164 14.734 6.7812 0 9.7812-4.3086 7.8242-11.734-1.8242-7.4297 0.13281-6.7812 9.5156 3.1328 4.2969 4.5586 9.1211 9 10.691 9.7812 7.1641 3.6484 16.031-0.13281 16.031-6.7812 0-1.6914 0.78125-4.043 1.6914-5.3398 2.4727-3.2539 6.3828-1.043 10.824 6.1328 7.1641 11.473 13.297 14.723 21.504 11.34 4.8242-2.0898 6.3828-4.8242 6.3828-11.34 0-5.0898 1.8242-8.207 4.6914-8.207 0.78125 0 3.5156 3.1328 6.1328 7.043 4.8242 7.2969 12.898 12.516 19.414 12.516 4.8242 0 9.9102-4.5586 10.945-9.7812 1.3086-6.9102 3.2656-7.8242 11.207-5.207 10.297 3.3828 16.43 3.2539 19.414-0.51562 1.3086-1.6914 2.4727-4.6914 2.4727-6.7812 0-3.2539 1.043-4.2969 6.6484-7.4297 9.7812-5.207 14.207-9.1211 14.207-12.648 0-3.2539-4.2969-7.1641-7.8242-7.1641-1.1758 0-3.5156-1.5586-5.0898-3.3828-2.6055-3-3.7812-3.3828-8.7344-2.7344-6.6484 0.64844-8.0898-0.51562-10.945-9.3828-1.957-5.8672-2.0898-6-7.8242-6.3828-5.2188-0.26562-6.6484 0.26562-12.254 4.957-3.3828 2.8672-6.7812 5.2188-7.2969 5.2188-0.51563 0-2.2188-2.6055-3.7812-5.8672-3.1328-6.6484-5.8672-8.4727-12.898-8.4727-5.2188 0-9.6484 2.6055-15.637 9.1211l-2.8672 3.2656-5.6055-6.2539c-4.043-4.5586-6.6484-6.3828-10.297-6.9102-7.1641-1.1758-10.559 0.13281-18.637 7.4297l-7.2969 6.7812-4.957-5.4727c-4.2969-4.6914-5.6055-5.3398-10.43-5.3398-6.1211 0-8.3398 0.91016-16.43 7.1641-4.957 3.7812-6.2539 4.1758-11.988 3.6484l-6.3828-0.64844-9.6484 9.6484c-5.3398 5.3398-11.734 10.297-14.074 11.207-2.2188 0.78125-4.1758 1.3086-4.1758 1.043 0-0.13281 4.6914-13.812 10.43-30.238 5.8672-16.43 10.824-30.504 11.074-31.285 0.25391-0.78125 2.6055-1.957 5.2188-2.3398 5.3398-1.043 7.8242 0.26562 22.031 12.254 12.383 10.43 21.121 10.297 21.898-0.26562 0.51563-7.8242 3-7.6914 12.516 0.78125 8.6055 7.6914 15.121 10.559 20.988 9.2539 5.0898-1.043 7.043-3.6484 7.8242-10.164 0.39453-2.8672 1.4414-5.4727 2.3516-5.7344 0.78125-0.26562 3.7812 1.4297 6.5156 3.9102 2.7344 2.4727 6.2539 5.0898 7.8242 6 3.1328 1.5586 9.3828 1.957 12.781 0.64844 3.1328-1.3086 6.2539-8.0742 5.2188-11.855-1.4414-5.7344 1.3086-7.1641 11.855-6.2539 14.605 1.4414 22.68-3.5156 22.68-13.945 0-3.7812 0.78125-5.3398 3.5156-7.1641 11.473-7.8242 14.723-14.473 9.5156-19.297-2.4727-2.2188-3.3828-2.3516-10.297-0.91016-10.559 2.2188-11.605 2.0898-16.68-2.3516-6-5.207-10.297-5.0898-23.855 1.3086-6.1328 2.8672-12.516 5.2188-14.207 5.2188-1.6914 0-5.3398-1.957-8.0742-4.5586-8.0742-7.2969-14.074-6-26.461 5.4727-5.207 4.8242-7.957 6.6484-8.3398 5.4727-1.4297-4.5586-6-7.6914-11.207-7.6914-4.5586 0-6 0.78125-11.074 6.2539-6.9102 7.2969-10.297 9.3828-15.383 9.3828-2.3398 0.13281-6.7812 2.4727-12.77 7.043-5.0898 3.9102-9.2539 6.9102-9.3828 6.7812-0.91016-0.91016 12.121-43.801 13.43-44.316 0.78125-0.26562 4.043-0.91016 7.2969-1.4414 5.2188-0.78125 6.2539-0.51562 11.605 3.7812 15.898 12.77 30.504 14.723 31.68 4.043 0.64844-6.2539 4.4297-7.8242 15.121-6 13.297 2.0898 15.383 1.957 19.68-2.3516 2.8672-3 3.7812-5.0898 3.7812-9 0-6.1211 1.043-6.7812 11.855-6.7812 15.637 0 22.547-6.6484 18.383-17.723l-2.0898-5.6055 8.0742-7.5586c7.043-6.6484 8.0742-8.207 8.0742-12.383 0-6.7812-6.2539-8.4727-13.559-3.7812l-3.9102 2.6055-4.2969-3.9102c-6.7812-5.8672-10.297-5.207-22.164 4.6914-9.9102 8.3398-11.988 9.1211-18.637 7.2969l-3.2656-0.91016 4.043-2.3398c4.2969-2.6055 8.3398-8.207 8.3398-11.605 0-2.7344 4.6914-5.8672 11.074-7.5586 10.43-2.7344 16.164-9.5156 13.691-16.031-1.6914-4.6914-0.64844-6.5156 6.2539-11.605 6.6484-4.6914 11.605-12.383 10.297-15.637-1.4297-3.7812-7.1641-4.043-14.723-0.91016-4.8242 1.957-8.207 2.6055-10.691 1.957-13.691-3.5156-20.594-1.8242-26.328 6.3828-1.957 3-4.5586 6.2539-5.6055 7.1641-1.6914 1.3086-1.8242 0.91016-0.91016-3.2656 1.3086-5.6055 5.3398-10.297 11.855-13.691 2.6055-1.3086 6.3828-4.3086 8.3398-6.6484 2.8672-3.3828 3.3828-5.0898 2.7344-8.6055-0.51562-3.3828 0.26562-6.3828 3.3828-12.121 3.1328-6.2539 3.6484-8.0742 2.3398-9.6484-2.6055-3.1328-7.043-2.2188-13.164 2.6055-5.2188 4.1758-6.2539 4.4297-12.254 3.7812-9.1211-0.91016-14.605 2.2188-19.164 11.34-3.3828 6.7812-3.6484 6.9102-8.7344 6.5156-6.6484-0.39453-8.7344 2.4727-10.559 15.254-1.2148 9.7031-5.3906 19.746-7.8633 19.746-0.91016 0-1.1758-1.957-0.64844-5.6055 0.39453-3 1.043-11.734 1.5586-19.43 0.51562-7.5586 1.1758-14.34 1.6914-14.988 2.3516-3.5156 9.7812-6.9102 17.855-8.207 14.074-2.2188 19.68-5.8672 21.77-14.34 0.39453-1.8242 3.7812-5.4727 7.5586-8.3398l6.6484-4.957-0.78125-7.043c-0.64844-6-0.26563-8.0742 2.4727-13.559 3.7812-7.4297 4.043-9.5156 1.4297-11.605-2.4727-2.0898-9.2539 0.78125-14.207 6-3.2656 3.5156-4.2969 3.9102-9.2539 3.3828-3.1328-0.39453-6.7812 0-8.207 0.64844-2.2188 1.1758-3.2656 0.78125-6.6484-2.7344-4.957-5.0898-4.957-5.4727-1.5586-12.781 4.043-9.1211 3.5156-14.988-1.957-20.207-4.1758-3.7812-4.5586-4.957-4.5586-11.207 0-4.1758-0.78125-8.0898-2.0898-9.9102-2.3398-3.3828-3-3.5156-6.9102-0.78125-4.1758 3-6.6484 9.6484-6.6484 18.121 0 5.8672-0.51562 7.6914-3 9.7812-1.5586 1.4297-4.4297 4.043-6.5156 5.8672-4.4297 3.9102-4.4297 7.2969 0 15.898l3.3828 6.9102-3.3828 2.7344c-5.8672 4.5586-4.6914 11.734 3.5156 20.723 3.1328 3.5156 3.2656 3.9102 0.78125 1.957-7.8242-6.1211-11.734-10.559-13.164-14.855-2.0898-6.3828-4.4297-8.8672-9.7812-9.9102-2.4727-0.38281-7.6914-3.3828-11.605-6.5156-3.9102-3.2656-7.957-5.8672-9-5.8672-3.1328 0-4.6914 3.3828-4.5586 9.2539 0.13281 3.1328-0.51562 7.5586-1.4297 9.7812-2.4727 5.7344-0.78125 10.031 5.207 14.074 4.6914 3 5.2188 4.043 5.2188 8.7344 0 4.043 0.91016 6.1328 3.7812 9.1211 2.0898 2.0898 5.0898 3.7812 6.6484 3.7812 5.3398 0 7.8242 2.3516 7.8242 7.5586 0 8.207 4.043 10.945 13.812 9.8984 9-1.043 11.605 1.1758 11.074 9.3828-0.39453 8.7344-3.6484 33.109-4.4297 34.02-0.91016 0.91016-3.5156-8.4727-3.5156-12.77 0-4.957-2.4727-11.605-6.2539-16.68-2.8672-3.7812-3.7812-4.2969-7.5586-3.6484-5.3398 0.91016-6.9102-1.3086-6.7812-9.1211 0.13281-9.2539-5.8672-16.031-14.074-16.031-2.0898 0-6-2.6055-11.605-7.8242-6.5156-6-9.3828-7.8242-12.383-7.8242-3.1328 0-4.2969 0.78125-5.3398 3.5156-0.78125 2.0898-1.043 5.4727-0.78125 7.8242 0.64844 3.3828 0.13281 4.5586-2.4727 6.2539-5.2188 3.3828-4.2969 9.7812 2.2188 16.164 4.4297 4.1758 5.0898 5.4727 4.043 7.5586-0.78125 1.4414-3 2.6055-5.6055 2.7344-2.4727 0.26562-5.7344 1.1758-7.2969 2.2188-3.7812 2.4727-7.957 2.4727-14.074-0.13281-6.3828-2.6055-12.781-1.4297-15.637 2.8672-1.1758 1.8242-3.2656 4.4297-4.6914 5.8672-1.3086 1.3086-2.4727 3.3828-2.4727 4.5586 0 3.3828 7.043 9.3828 12.898 10.945 5.4727 1.4297 5.6055 1.5586 4.8242 6-0.78125 3.6484-0.39453 4.957 2.3398 7.6914s4.4297 3.2656 11.207 3.2656h7.957l-2.6055 3.3828c-3.6484 4.5586-3.3828 7.6914 0.64844 11.734 3.1328 3.2539 3.6484 3.3828 13.812 2.4727l10.559-0.91016-0.91016 3.5156c-2.3516 9.5156 4.6914 14.855 21.254 16.164 12.898 1.1758 13.691 1.4414 16.43 6.7812 1.957 3.5156 1.8242 4.5586-1.4414 15.254-6.1328 20.461-6.7812 22.297-6.9102 18.121-0.13281-3.7812-4.1758-8.7344-7.1641-8.7344-3.5156 0-6-5.4727-6-13.031 0-4.4297-0.78125-8.3398-2.0898-10.164-2.3398-3.3828-7.6914-3.7812-11.855-0.91016-4.957 3.3828-6.9102 1.3086-6.9102-7.4297 0-6.3828-0.51562-8.207-3.2656-10.824-4.043-4.1758-8.0898-4.1758-12.516 0.13281-4.5586 4.4297-6.3828 3.1328-6.3828-4.2969 0-3.7812-0.78125-6.9102-2.2188-8.4727-2.6055-3-9.3828-3-14.34-0.13281-4.2969 2.4727-9.7812 1.5586-12.781-1.957-6-6.9102-7.4297-8.0742-10.559-8.0742-1.8242 0-6.9102 1.8242-11.207 4.1758-7.6914 4.043-7.957 4.1758-11.734 1.957-2.8672-1.6914-4.4297-1.8242-6.3828-0.91016-3.1328 1.6914-3.1328 2.3516 0 9.3828 2.8672 6.7812 6.5156 10.164 13.559 12.898 4.1758 1.4414 5.3398 2.6055 5.0898 4.5586-0.26562 1.3086-0.51562 4.4297-0.64844 6.6484-0.26562 3.5156-0.64844 4.1758-2.6055 3.5156-1.3086-0.38281-3.7812 0.13281-5.4727 1.3086-1.6914 1.1758-3.9102 2.0898-4.8242 2.0898-0.91016 0-4.957-3.5156-9-7.8242-8.7344-9.5156-11.34-9.9102-18.121-2.6055-2.6055 2.8672-5.4727 5.207-6.2539 5.207s-2.6055-1.6914-4.1758-3.7812c-3.5156-5.0898-7.2969-6.2539-10.559-3.2539-3.5156 3.2539-3.1328 9.3828 0.91016 13.68 3.2656 3.3828 3.2656 3.6484 1.1758 6.7812-1.957 3.1328-1.957 3.6484 0 7.4297 1.1758 2.2188 3.1328 4.4297 4.2969 4.8242 1.1758 0.39453 4.1758 1.5586 6.3828 2.4727l4.2969 1.6914-3.2656 3.5156c-3.7812 4.1758-4.043 7.8242-0.91016 11.988 3.1328 4.043 10.43 5.4727 22.68 4.5586 6.9102-0.51562 10.164-0.26562 10.164 0.64844 0 1.957-7.8242 9.5156-9.1211 8.7344-0.51562-0.26562-4.043 0.26562-7.6914 1.4414-3.7812 1.043-7.8242 1.5586-9 1.1758-1.1758-0.39453-4.6914-4.1758-7.8242-8.4727-6.7812-9.2539-13.164-12.121-20.207-9.2539-9 3.6484-10.945 3.3828-17.207-2.3516-6.3828-5.8672-9.7812-6.6484-13.559-2.8672-2.0898 2.0898-3.6484 2.4727-7.4297 1.8242-3.7812-0.64844-5.207-0.26563-6.5156 1.5586-3.1328 4.3086-1.957 7.5586 4.957 14.074l6.7812 6.2539-2.2188 3.7812c-3.2656 5.4727-2.7344 10.031 1.5586 14.473 4.2969 4.1758 7.043 4.5586 16.945 2.2188 3.6484-0.78125 6.9102-1.1758 7.2969-0.78125 0.39453 0.39453-0.64844 3-2.6055 5.6055-7.957 11.855-0.13281 22.945 12.781 18.121 10.945-4.1758 22.031-3.5156 13.812 0.78125-3.9102 2.0898-6.3828 8.7344-4.957 13.031 1.3086 3.6484 7.2969 7.8242 11.207 7.8242 1.4414 0 6-1.1758 10.164-2.6055 7.043-2.3516 12.383-2.4844 12.383-0.26562 0 0.51562-1.8242 3.5156-3.9102 6.7812-4.1758 6.2539-4.6914 9.5156-2.6055 14.988 2.0898 5.6055 6.7812 6.3828 15.637 2.6055 8.207-3.3828 12.516-4.043 15.648-1.957 1.5586 1.043 1.5586 1.8242-0.39453 5.8672-3.1328 6.6484-2.8672 11.855 1.1758 15.77 3.5156 3.6484 4.6914 3.6484 19.031 0.39453 6-1.3086 9.1211-1.4414 14.723-0.26562 6.6484 1.4414 22.812 7.8242 22.812 9.1211 0 0.78125-34.934 76.129-35.578 76.906-0.39453 0.39453-1.8242-1.3086-3.1328-3.7812-1.957-3.6484-2.3398-7.5586-2.3398-27.109-0.13281-20.594-0.39453-23.207-2.6055-26.328-3.3828-4.5586-7.2969-6.2539-14.34-6.2539-7.4297 0-8.7344-2.2188-6.7812-11.34 1.8242-8.8672 0.26562-13.43-5.4727-16.297-4.043-1.957-4.957-2.0898-9.1211-0.26562-2.4727 1.043-5.6055 2.7344-6.6484 3.7812-4.6914 4.2969-6.5156 1.1758-6.5156-11.207 0-8.7344-1.957-15.121-5.2188-16.812-3.9102-2.0898-10.164-1.5586-15.77 1.3086-2.8672 1.5586-5.7344 2.3516-6.3828 1.957-0.64844-0.38281-2.3516-4.6914-3.9102-9.6484-1.4414-4.8242-3.9102-10.031-5.6055-11.605-3.5156-3.2539-9.5156-3.6484-13.164-0.91016-4.8242 3.6484-8.0742 2.3398-14.074-5.6055-7.5586-9.7812-12.898-11.473-20.34-6.2539l-5.0898 3.5156-6.1328-2.7344c-7.4297-3.1328-13.559-3.3828-17.473-0.64844-2.6055 1.8242-3.3828 1.8242-8.9883-0.13281-4.8242-1.6914-7.043-1.8242-9.9102-0.64844-4.8242 1.957-4.5586 5.4727 1.043 10.824 3.5156 3.2656 4.4297 5.0898 3.9102 7.2969-1.3086 5.0898 2.6055 10.164 9.3828 12.77 9.2539 3.3828 10.691 4.957 7.2969 8.6055-6.6484 7.2969-7.5586 14.988-2.2188 19.164 3.1328 2.4727 4.5586 2.6055 14.988 1.8242 12.648-0.91016 13.43-0.39453 9.6484 6.1328-3 5.3398-2.4727 11.207 1.4414 14.207 4.2969 3.3828 10.824 3.5156 19.414 0.26562 3.5156-1.3086 7.8242-2.8672 9.5156-3.3828l3-0.91016-2.6055 5.3398c-3.9102 7.5586-3.6484 14.855 0.64844 18.254 4.8242 3.7812 7.4297 3.5156 16.945-1.8242 8.0742-4.5586 13.559-5.8672 13.559-3.2539 0 0.78125-1.1758 3.6484-2.4727 6.2539-3.9102 7.5586-4.5586 13.691-2.2188 18.254 3.5156 6.9102 7.4297 6.7812 18.121-0.51562 10.164-7.043 14.723-5.6055 10.031 3-2.8672 5.4727-3.3828 13.031-0.91016 16.164 4.043 5.207 7.2969 5.6055 16.68 1.8242 9.9102-4.043 12.516-3.7812 12.516 1.4297 0 5.2188 4.1758 7.8242 13.559 8.8672 6.9102 0.78125 11.855 2.2188 13.945 4.1758 0.91016 0.64844-39.238 78.73-40.152 78.07-1.957-1.1758-4.2969-13.031-4.4297-22.031 0-5.0898 0.51563-16.031 1.043-24.371l1.1758-14.988-4.2969-4.8242c-5.4727-6.3828-9.3828-6.3828-15.898 0l-4.8242 4.6914-1.4414-3.5156c-0.64844-1.957-1.3086-7.4297-1.3086-12.254-0.13281-20.207-10.031-26.855-22.285-15.121-4.043 3.9102-4.8242 4.3086-6.2539 2.6055-0.91016-1.1758-2.0898-7.1641-2.6055-13.43-0.51562-6.2656-1.6914-12.781-2.4727-14.34-2.2188-4.043-6.7812-6.9102-10.945-6.9102-3.9102 0-4.6914 0.78125-7.6914 8.4727-3.9102 9.5156-8.6055 5.6055-14.855-12.516-3.7812-11.074-9.7812-14.34-16.68-9-1.8242 1.4414-4.043 4.6914-4.8242 7.1641s-2.0898 4.5586-2.7344 4.5586c-0.64844 0-3.9102-4.6914-7.1641-10.43-10.559-18.121-18.254-21.637-23.328-10.824-3 6.6484-6.6484 7.2969-11.207 2.0898-8.3398-9.2539-12.781-13.43-14.473-13.43-3.5156 0-8.8672 5.2188-8.8672 8.6055 0 4.1758-2.0898 3.9102-8.3398-0.78125-5.3398-4.043-10.945-4.957-13.559-2.3516-2.4727 2.4727-1.8242 7.6914 1.3086 11.074 2.7344 3 2.7344 3.2539 0.64844 6.7812-4.4297 7.6914-1.4414 13.031 10.43 18.383 4.4297 2.0898 8.207 4.2969 8.207 5.0898 0 0.64844-1.957 2.4727-4.4297 3.9102-5.0898 3.1328-8.6055 7.957-8.6055 11.734 0 3.6484 6 10.297 10.164 11.207 2.0898 0.39453 7.4297-0.13281 11.988-1.1758 4.6914-1.1758 10.164-2.0898 12.254-2.0898h3.6484l-4.5586 5.0898c-6.3828 7.043-7.6914 10.031-6.7812 14.605 0.91016 4.043 7.043 9 11.34 9 1.1758 0 5.8672-1.8242 10.43-3.9102 8.9883-4.3086 15.516-5.8672 18.637-4.6914 1.6914 0.64844 1.4414 1.5586-1.8242 5.7344-5.8672 7.1641-6.3828 11.855-2.0898 16.945 4.2969 5.207 9.3828 5.4727 19.945 1.043 8.0742-3.3828 17.594-5.3398 19.68-4.1758 0.64844 0.51562-0.78125 4.1758-3.2656 8.207-5.7344 9.5156-5.7344 13.68 0 19.414 5.4727 5.4727 10.031 5.7344 22.164 1.1758 4.8242-1.8242 10.691-3.2656 13.164-3.2656h4.5586l-4.5586 6.6484c-4.957 7.2969-5.7344 12.121-2.6055 17.988 3.3828 6.6484 7.043 6.9102 22.547 1.3086 14.34-5.0898 23.328-4.8242 34.414 0.78125 4.1758 2.0898 7.5586 4.1758 7.5586 4.6914 0 1.4297-41.844 85.895-42.492 85.895-0.39453 0-0.26562-9.5156 0.26562-21.254 0.78125-19.547 0.64844-21.371-1.5586-23.594-1.8242-1.957-3.6484-2.2188-9.2539-1.6914-6.5156 0.64844-6.9102 0.51562-7.6914-2.6055-0.51562-1.8242-0.51562-6.9102-0.13281-11.34 1.957-21.121-5.4727-28.68-21.121-21.637-3.1328 1.4414-6.1328 2.6055-6.6484 2.6055-1.3086 0-3.5156-5.7344-5.207-13.297-1.957-8.9883-3.9102-12.516-8.7344-15.516-5.3398-3.3828-8.4727-2.4727-15.648 4.2969-3 3-6.2539 4.957-7.1641 4.5586-1.043-0.26563-3.5156-4.957-5.4727-10.164-4.8242-12.648-8.0742-17.723-12.383-19.945-5.0898-2.7344-10.031-1.1758-14.605 4.5586-2.2188 2.8672-5.0898 5.0898-6.3828 5.0898-3.2656 0-7.1641-5.207-10.43-14.074-6.2539-16.559-16.812-20.074-27.238-8.8672-3.9102 4.1758-6 3.1328-13.43-6.6484-6.9102-9.1211-11.34-11.207-18.383-8.7344-6.7812 2.4727-6.9102 2.4727-8.7344-2.0898-3.6484-8.8672-10.945-12.648-16.43-8.4727-3.5156 2.6055-5.4727 2.4727-9.9102-1.3086-4.043-3.3828-8.7344-4.1758-12.898-1.957-3.2656 1.8242-3.2656 7.957 0 15.121l2.3398 5.207-3 3.6484c-1.6914 1.957-3.1328 4.957-3.1328 6.6484 0 3.3828 4.2969 7.1641 8.207 7.1641 1.3086 0 4.1758 0.91016 6.3828 2.0898 3.5156 1.8242 3.7812 2.4727 3.1328 6.1211-2.2188 11.34-2.3398 16.164-0.39453 20.855 1.8242 4.043 2.7344 4.8242 6.1211 4.8242 2.2188 0 5.8672-0.91016 7.957-2.0898 4.6914-2.3516 10.164-1.957 11.988 0.91016 0.91016 1.5586 0.39453 3.3828-2.2188 7.1641-4.6914 7.0312-4.5586 13.812 0.39453 18.898 5.207 5.0898 10.031 4.957 21.898-0.91016 8.3398-4.1758 10.031-4.5586 12.898-3.2656 4.6914 2.0898 4.957 4.3086 1.3086 11.734-4.6914 9-4.5586 17.207 0 20.855 4.1758 3.2656 6.5156 2.8672 20.594-4.043 11.734-5.6055 12.781-5.7344 15.121-3 1.4414 1.6914 1.4414 3.7812 0.13281 10.824-1.6914 9.5156-0.64844 14.855 3.5156 17.988 3.6484 2.8672 8.4727 2.0898 22.164-3.3828 14.207-5.7344 17.34-6.2539 19.945-3.1328 1.3086 1.5586 1.3086 3.5156 0.13281 9.5156-2.4727 11.605-1.957 18.637 1.4414 23.723 4.1758 6.2539 10.031 6.6484 21.371 1.1758 5.6055-2.7344 9.5156-3.9102 11.605-3.3828 2.8672 0.78125 3.1328 1.5586 3.1328 7.6914 0 4.1758 0.78125 7.957 2.0898 9.9102 2.6055 3.6484 6.6484 3.2656 19.164-1.5586 10.559-4.1758 14.207-4.957 16.43-3.6484 2.0898 1.3086-1.1758 7.5586-22.031 43.141-6.9102 11.855-16.68 28.68-21.637 37.402-7.2969 12.898-9.2539 15.516-10.297 13.691-1.6914-3.1328-1.5586-16.031 0.64844-38.062 1.6914-17.723 1.6914-19.164-0.51562-22.547-3-4.4297-6.3828-4.4297-11.473-0.26562-2.0898 1.8242-4.4297 3.2539-5.0898 3.2539-2.4727 0-4.957-6.3828-5.8672-14.988-1.957-20.328-10.031-27.504-21.254-18.77-6.9102 5.4727-9.6484 2.2188-12.121-14.207-1.8242-12.383-5.7344-17.207-13.691-17.207-4.043 0-6 0.91016-9.5156 4.5586-2.4727 2.4727-5.2188 4.5586-6.2539 4.5586-0.91016 0-2.8672-2.7344-4.2969-6.2539-7.043-16.68-9.7812-21.637-13.559-23.988-5.7344-3.3828-9.1211-2.8672-14.855 2.2188-2.7344 2.4727-6 4.5586-7.1641 4.5586-1.1758 0-4.043-2.7344-6.3828-6.1211-10.43-15.516-16.297-18.121-22.285-10.164-1.957 2.4727-3.9102 4.5586-4.4297 4.5586-0.51562 0-3.7812-2.3398-7.2969-5.207-6.2539-5.2188-11.855-6.6484-14.605-3.9102-0.78125 0.78125-3.3828-0.26562-7.5586-3.2539-7.8242-5.4727-10.824-6.5156-13.164-4.5586-3.1328 2.6055-2.2188 7.5586 2.2188 13.812 3.6484 5.0898 3.9102 6.1211 2.6055 9-3.9102 8.4727-1.3086 13.031 10.031 18.121 2.8672 1.4414 5.3398 3.1328 5.3398 4.043 0 0.78125-1.957 3.3828-4.4297 5.7344-5.7344 5.4727-8.3398 14.074-6 19.68 2.3516 5.4727 8.6055 7.043 18.898 4.5586 4.2969-1.043 10.297-1.8242 13.43-1.957h5.7344l-5.8672 6.7812c-7.043 8.3398-9.6484 16.297-7.1641 21.637 2.6055 5.4727 8.207 5.3398 15.383-0.26562 7.2969-5.7344 17.594-9.5156 20.207-7.2969 1.4297 1.1758 1.043 2.8672-2.2188 10.031-4.8242 10.164-5.4727 20.988-1.6914 25.152 3.9102 4.2969 9.3828 3.2539 19.414-3.3828 8.3398-5.6055 16.68-9 18.254-7.4297 0.39453 0.39453-0.26562 2.8672-1.3086 5.4727-5.6055 12.898-7.1641 25.02-3.7812 31.285 3.3828 6.6484 9.3828 7.0312 20.988 1.5586 4.4297-2.0898 9.9102-4.1758 12.254-4.6914l4.1758-0.91016-0.78125 4.957c-2.3516 14.988-2.4727 17.473-0.26562 20.723 3.3828 5.0898 9.2539 4.4297 16.945-1.957 3.3828-2.8672 7.2969-5.207 8.6055-5.207 2.6055 0 7.8242 5.7344 7.8242 8.6055 0 0.91016 1.4414 2.7344 3.2656 3.9102 3.6484 2.3398 6.9102 1.6914 13.691-2.8672 2.4727-1.6914 6.1211-3.1328 8.207-3.1328h3.5156l-2.4727 4.8242c-1.3086 2.7344-6.2539 11.207-10.824 18.77-4.4297 7.5586-12.898 22.945-18.637 34.152-5.7344 11.207-10.824 20.461-11.207 20.461-1.6914 0-4.043-15.77-3.3828-21.77 2.2188-18.898 2.3516-20.723 0.64844-23.855-2.4727-4.5586-10.297-6.2539-16.297-3.3828-2.4727 1.1758-5.0898 1.8242-5.7344 1.4414-0.64844-0.51562-1.1758-4.4297-1.1758-8.8672 0-10.297-1.8242-16.68-6-21.77-4.043-4.6914-8.7344-5.0898-15.516-1.1758-4.2969 2.6055-4.8242 2.6055-6.9102 0.64844-1.3086-1.043-3.6484-5.7344-5.3398-10.43-1.5586-4.5586-4.8242-10.43-7.2969-13.031-5.7344-6.2539-10.559-6.2539-19.031 0l-6.3828 4.6914-5.0898-10.945c-6.2539-13.43-9.7812-16.812-17.988-17.594-7.4297-0.78125-9.9102 1.3086-12.516 10.164-2.3398 8.207-5.3398 7.6914-11.988-2.0898-5.3398-7.957-11.605-12.383-17.34-12.383-3.1328 0-10.945 6.6484-12.254 10.43-0.51562 1.5586-1.4297 1.1758-4.043-1.6914-2.2188-2.2188-4.6914-3.5156-7.043-3.5156-4.2969 0-9.5156 3.2539-9.5156 5.7344 0 2.2188-2.8672 3.3828-8.4727 3.3828-10.297 0-13.164 9.9102-3.9102 13.812 4.5586 1.8242 5.7344 3.6484 3.2656 5.0898-1.8242 1.1758-1.5586 5.4727 0.26562 6.7812 0.91016 0.51563 4.5586 1.3086 8.0742 1.6914l6.3828 0.64844 0.26563 7.1641c0.26562 8.3398 2.2188 12.648 6.5156 14.34 3.7812 1.4414 7.4297 0.39453 15.383-4.4297 3.3828-2.0898 6.5156-3.5156 6.7812-3.1328 0.26562 0.26563-0.91016 3.6484-2.7344 7.5586s-3.6484 9.9102-4.043 13.164c-0.64844 5.0898-0.26562 6.5156 2.0898 8.8672 4.1758 4.1758 11.988 3.6484 22.945-1.5586 5.0898-2.4727 10.824-4.8242 12.898-5.3398l3.7812-0.91016-4.6914 5.2188c-6.5156 7.1641-8.7344 11.988-8.7344 19.031 0 4.957 0.64844 6.7812 3.7812 9.9102 6 6 11.34 4.6914 24.637-6.2539 6.9102-5.4727 13.43-7.2969 15.254-4.2969 0.39453 0.78125-1.3086 5.4727-3.7812 10.559-2.6055 5.207-4.6914 11.207-4.6914 13.559 0 10.297 10.691 11.207 25.285 1.957 5.7344-3.6484 10.824-5.7344 14.605-6.2539 3.1328-0.26562 5.7344-0.26562 5.7344 0.13281 0 0.26563-1.1758 3.1328-2.6055 6.2539-6.1328 13.559-1.3086 25.547 9.7812 24.238 3-0.26562 7.8242-2.0898 10.945-4.043 7.4297-4.6914 14.855-7.2969 20.988-7.2969 9.6484 0 9.6484 0 0.64844 18.898-8.0742 16.945-15.648 36.238-24.238 62.566l-4.1758 12.898-2.4727-7.043c-1.4414-3.9102-3.1328-13.031-3.7812-20.207-1.957-20.074-5.8672-25.945-15.254-22.945-2.8672 1.043-5.7344 1.4414-6.5156 0.91016-0.78125-0.39453-2.8672-5.4727-4.8242-11.207-4.043-12.254-9.3828-18.898-13.945-17.605-1.6914 0.51562-4.8242 3-7.1641 5.6055-3.5156 4.1758-4.2969 4.4297-6.2539 2.8672-1.1758-0.91016-3.3828-4.043-4.8242-6.9102-1.4297-2.8672-5.2188-8.0742-8.4727-11.473-4.957-5.3398-6.7812-6.3828-10.559-6.3828-3.7812 0-5.6055 1.043-9.9102 5.8672-6.1211 6.5156-4.5586 6.7812-18.121-3-8.6055-6.1211-12.781-6.6484-16.43-2.0898-2.4727 3.1328-2.7344 4.6914-2.0898 9.2539 0.91016 6.5156 0.26562 6.7812-7.1641 3-8.7344-4.4297-19.547-2.3516-19.547 3.9102 0 1.4297-0.64844 3.9102-1.4297 5.6055-1.1758 2.6055-2.6055 3.3828-8.0742 3.9102-4.8242 0.39453-7.2969 1.4414-9 3.5156-1.2852 1.6445-2.3281 3.3359-2.3281 3.8555zm558.67-723.82c-0.64844 2.6055-1.5586 3.1328-5.8672 3.1328-6.2539 0-8.6055 2.4727-10.43 11.734-1.6914 8.0898-5.2188 14.855-9 16.812-2.3516 1.1758-2.3516 0.91016-0.78125-8.7344 0.78125-5.4727 1.957-13.43 2.3516-17.473 0.91016-6.7812 1.3086-7.4297 4.957-8.7344 2.3516-0.78125 7.1641-1.8242 10.945-2.2188 7.4414-0.91797 9.1328 0.25781 7.8242 5.4805zm-39.359 80.938c-0.13281-0.13281 1.5586-7.2969 3.9102-15.898 2.3516-8.6055 4.6914-17.207 5.2188-19.297 1.043-4.2969 5.2188-4.6914 11.473-0.91016 2.7344 1.6914 6.6484 2.6055 10.691 2.6055 6 0 6.9102-0.39453 11.988-5.8672 4.043-4.4297 6.7812-6.2539 10.43-6.7812l4.957-0.78125-4.1758 3.7812c-2.3398 2.0898-6.1211 6.6484-8.4727 10.297-4.043 6.2539-4.4297 6.5156-11.734 7.2969-8.207 0.91016-10.824 2.6055-16.812 11.34-3.1328 4.4492-16.43 15.391-17.473 14.215zm-1.5625-41.844c-1.957-4.2969-5.7344-23.074-4.8242-23.988 0.39453-0.38281 1.957-0.91016 3.5156-1.1758 1.5586-0.26562 4.043-1.5586 5.6055-2.8672 7.1641-6.5156 7.2969-5.207 1.5586 15.898-3.9102 14.09-4.4258 15.133-5.8555 12.133zm-109.88 81.215c1.6914 1.043 1.6914 1.957 0.13281 6.5156-1.3086 4.1758-1.4414 6.1211-0.13281 8.7344 1.957 4.2969 1.043 5.2188-3.2656 3.3828-2.0898-1.043-4.5586-4.2969-6.6484-9-3.2656-7.043-3.2656-7.4297-1.043-9.1211 2.7383-1.9492 8.2109-2.2148 10.957-0.51172zm42.875-37.281-1.5586 5.8672-2.4727-3.1328c-2.8672-3.6484-4.8242-3.9102-10.031-1.1758-3.5156 1.8242-4.043 1.8242-6.3828-0.51562-1.4414-1.4414-3.2656-4.957-4.043-7.957-1.5586-6-6.6484-9.5156-9.3828-6.7812-4.043 4.043-9.6484 0.78125-13.031-7.5586l-1.957-4.5586 10.297-0.26562c5.6055-0.13281 10.297-0.13281 10.297 0 0.13281 0.13281 0.39453 2.7344 0.51562 5.8672 0.64844 9.7812 7.043 13.812 19.945 12.516 4.8242-0.51562 8.0742-0.39453 8.6055 0.51563 0.375 0.79297 0.11328 4.0469-0.80078 7.1797zm28.812 70.523c-2.6055-5.6055-2.8672-8.0742-2.6055-21.504l0.26562-15.254-4.043-3.3828c-2.2188-1.8242-5.7344-3.3828-7.6914-3.3828-3.6484 0-10.031-5.6055-13.164-11.473-1.8242-3.7812-1.043-5.0898 1.4414-2.0898 1.8242 2.2188 3.9102 2.2188 24.238-0.26562 5.8672-0.78125 7.5586-0.39453 12.648 2.6055 9.6484 5.7344 10.031 6.7812 6.3828 20.074-3.7812 13.812-10.559 33.625-12.781 37.934-1.5586 3.1211-1.6914 3.1211-4.6914-3.2617zm-23.855 61.777c-2.0898-5.3398-2.2188-7.957-1.1758-19.547 1.4414-16.43 1.1758-18.254-4.1758-23.988-3.6484-3.9102-4.957-4.4297-10.691-4.4297-3.6484 0-7.1641-0.78125-7.957-1.6914-0.78125-0.78125-2.3398-5.3398-3.5156-10.031-1.1758-4.5586-3-10.031-4.043-11.988l-1.957-3.6484h12.898l-2.7344 6.6484c-2.6055 6-2.6055 6.7812-0.78125 10.031 1.5586 3 3 3.6484 8.207 3.9102 3.3828 0.26562 9.3828-0.51562 13.297-1.8242 10.164-3.1328 19.031-2.0898 23.988 3l3.9102 3.9102-9 22.031c-4.957 12.121-10.164 24.637-11.473 27.887l-2.6055 5.7344z"/>
</svg>
