<?xml version="1.0" encoding="UTF-8"?>
<svg width="1200pt" height="1200pt" version="1.1" viewBox="0 0 1200 1200" xmlns="http://www.w3.org/2000/svg">
 <path d="m613.44 620.16c-24-9.9609-66.238 3.1211-102.24 18.961 51.359-36.719 116.04-86.039 140.88-108l1.9219-1.6797c70.559-19.199 78.359-7.4414 129.6 0 55.199 7.4414 89.641-51.719 89.641-51.719l-0.007813-0.003906c-25.25-18.949-54.816-31.32-86.039-36-25.078-3.7188-60.719 17.398-91.078 40.441 37.32-45.961 82.441-108 99.961-132 75.238-33.602 83.16-22.078 137.04-22.441 55.68 0 81.602-63.719 81.602-63.719h-0.003906c-27.867-15.039-59.051-22.875-90.719-22.801-40.32 0-98.52 65.52-123.96 96.84 22.559-33.121 69.359-108 57.359-147-9.1484-30.125-25.641-57.508-48-79.68 0 0-53.281 42.961-37.559 96 14.281 48.602 26.879 55.199 19.559 123.96h-0.83984c-0.60156 0.83984-37.32 52.078-75.359 101.52 9.1094-14.914 13.5-32.23 12.602-49.68-4.918-31.113-17.496-60.516-36.602-85.559 0 0-58.68 35.16-50.52 90.359 7.6797 51.84 19.801 58.922 0 132.72-18 15.359-57.121 45.719-96 75 13.188-12.641 22.188-29.016 25.801-46.918 2.7969-31.699-2.3984-63.594-15.121-92.762 0 0-65.52 19.922-70.922 75.359-5.1602 51.961 4.8008 61.922-31.32 127.8l-9.7188 5.8789c-52.441 33.078-94.133 80.691-120 137.04 2.1602-27.48 0-53.52-10.441-68.398h0.003907c-18.625-25.688-43.375-46.312-72-60 0 0-36 57.961-4.0781 103.44 29.879 42.121 43.922 43.68 60 114.84-8.8828 32.039-48.484 99-111.6 188.04l13.078 9.2383c45-63.238 98.52-144 112.44-187.8 56.52-51.961 68.398-44.52 118.08-61.922 52.559-18.48 56.398-86.762 56.398-86.762l0.003906 0.007813c-31.098-5.2656-63.02-2.7109-92.883 7.4375-29.039 9.8398-55.441 59.039-72 98.762 20.285-74.074 67.316-138 132-179.4l10.199-6.1211c74.52-1.8008 79.078 12 127.44 30.719 51.84 20.641 99.48-28.441 99.48-28.441v0.003906c-20.297-24.609-46.461-43.715-76.078-55.559z"/>
</svg>
