<?xml version="1.0" encoding="UTF-8"?>
<svg width="1200pt" height="1200pt" version="1.1" viewBox="0 0 1200 1200" xmlns="http://www.w3.org/2000/svg">
 <path d="m950.06 519.84c-90.844-9.5625-186.94 15.234-255.94 39.938 64.969-34.875 148.87-90.094 202.69-164.16 56.062-77.203 58.734-170.86 5.9531-209.21-52.781-38.344-141.05-6.8438-197.16 70.312-53.672 73.922-80.25 169.5-93.375 241.64 2.2969-73.688-3.6094-174-40.828-257.58-38.812-87.188-118.59-136.31-178.22-109.78-59.625 26.531-76.5 118.73-37.688 205.87 37.172 83.438 106.64 154.26 162.56 201.66-62.672-38.812-152.48-83.859-243.52-93.422-94.875-9.9844-177.37 34.547-184.18 99.469-6.7969 64.875 64.594 125.58 159.47 135.56 90.844 9.5625 186.94-15.234 255.94-39.938-64.969 34.875-148.87 90.094-202.69 164.16-56.062 77.203-58.734 170.86-5.9531 209.21 52.781 38.344 141.05 6.8906 197.16-70.312 53.672-73.922 80.25-169.5 93.375-241.64-2.2969 73.688 3.6094 173.95 40.828 257.58 38.812 87.188 118.59 136.31 178.22 109.78 59.625-26.531 76.5-118.73 37.688-205.87-37.172-83.438-106.64-154.26-162.56-201.66 62.672 38.812 152.48 83.859 243.52 93.422 94.875 9.9844 177.37-34.547 184.18-99.469 6.8438-64.875-64.547-125.58-159.47-135.56zm-350.06 157.78c-42.891 0-77.625-34.734-77.625-77.625 0-42.891 34.734-77.625 77.625-77.625s77.625 34.734 77.625 77.625c0 42.891-34.734 77.625-77.625 77.625z"/>
</svg>
