<?xml version="1.0" encoding="UTF-8"?>
<svg width="1200pt" height="1200pt" version="1.1" viewBox="0 0 1200 1200" xmlns="http://www.w3.org/2000/svg">
 <path d="m220.6 818.29c-46.008-57.492 154.25-239.26 235.91-309.42-55.465 58.535-128.69 161.93-177.98 309.64-50.52 151.33-39.215 172.11-34.918 179.89 2.6094 5.0938 7.2305 8.8672 12.742 10.406l17.426 4.5352 9.0586-34.801-7.3789-1.9062c0.19141-12.238 4.5117-46.094 32.398-131.88 60.145 1.6445 200.33 0.15625 313.7-41.617 68.219-25.199 87.457-214.64 105.41-329.55 17.953-114.91 212.11-191.91 231.6-201.09 44.879-21.098 165.32 17.914-303.1-62.328-65.867-11.293-217.59 41.676-217.59 41.676 0.003906 0-278.27 108.61-332.18 289.96-50.844 171.17 114.9 276.49 114.9 276.49z"/>
 <path d="m999.94 276.42c-35.074 1.4883-93.336 39.371-93.336 39.371l209.4 49.391-49.332-53.699s-31.645-36.562-66.73-35.062z"/>
</svg>
