<?xml version="1.0" encoding="UTF-8"?>
<svg width="1200pt" height="1200pt" version="1.1" viewBox="0 0 1200 1200" xmlns="http://www.w3.org/2000/svg">
 <path d="m619.2 318.12c-13.801-147-48-198.12-48-198.12s-20.16 48-30.121 186c15.719 29.52 36 82.559 50.879 172.44h0.003907c5.4531-53.996 14.555-107.55 27.238-160.32z"/>
 <path d="m561.24 690.24 21.48-77.039c0.87891-29.039 2.2812-56.441 4.1992-82.199-22.918-199.68-76.316-248.88-76.316-248.88s-42.602 87.957 28.68 389.88z"/>
 <path d="m600 583.68c5.543-0.20313 10.508 3.418 12 8.7617l27.238 97.801 26.762-22.68c52.441-366.48 17.281-487.56 17.281-487.56s-73.922 112.2-87.48 404.52c1.3359-0.52734 2.7617-0.8125 4.1992-0.83984z"/>
 <path d="m413.28 980.4c0.71875 3 1.6797 5.8789 2.6406 8.7617 2.0039 5.5469 4.5352 10.895 7.5586 15.961 4.5 7.4336 9.9023 14.285 16.078 20.398 6.2305 6.1523 13.066 11.66 20.402 16.441l7.4414 4.6797c5.0391 3 10.32 5.7617 15.719 8.2812 10.633 5.1406 21.621 9.5117 32.879 13.078 12.582 3.8359 25.41 6.8047 38.398 8.8789l7.1992 0.83984c-75.84-24-104.64-80.039-98.398-129.36 0.17969-1.5938 0.99219-3.0547 2.2578-4.0469 1.2617-0.99219 2.8711-1.4336 4.4648-1.2344 3.2422 0.49609 5.5156 3.4609 5.1562 6.7227-5.6406 44.398 19.801 100.92 108 121.32-60-73.68-29.641-183.36-28.199-188.4v-0.003906c0.98438-3.1367 4.2695-4.9375 7.4414-4.0781 1.5195 0.41797 2.8047 1.4297 3.5742 2.8047 0.76562 1.375 0.94922 3.0039 0.50391 4.5156 0 1.1992-31.68 117.36 33.238 185.88 62.879-68.281 56.879-135.24 56.879-135.96h0.003906c-0.35156-3.2773 2.0078-6.2227 5.2812-6.5977 1.5977-0.20312 3.2109 0.26172 4.457 1.2812 1.25 1.0195 2.0234 2.5078 2.1406 4.1172 0 2.8789 6.2383 67.199-51.48 135.84h0.003906c21.309-6.543 41.062-17.367 58.043-31.812 16.98-14.445 30.836-32.203 40.715-52.188 1.4961-2.9414 5.0898-4.1211 8.0391-2.6406 2.957 1.5469 4.1328 5.1758 2.6406 8.1602-20.07 40.309-54.738 71.461-96.961 87.121 5.7617-0.60156 12-1.1992 17.16-2.1602 12.672-2.1484 25.18-5.1562 37.441-9 43.559-13.441 88.559-31.441 102.48-87 26.52-105-48.719-146.28-96.48-196.92s-1.1992-120-1.1992-120l-56.52 48-32.281-116.4-32.281 115.92-56.52-48s46.559 70.078-1.1992 120c-47.762 49.918-123.36 92.398-96.719 196.8z"/>
</svg>
