<?xml version="1.0" encoding="UTF-8"?>
<svg width="1200pt" height="1200pt" version="1.1" viewBox="0 0 1200 1200" xmlns="http://www.w3.org/2000/svg">
 <path d="m630.33 407.62c-0.17188-113.85-31.664-225.46-91.023-322.61l-49.535 32.734c52.848 87.742 80.906 188.18 81.191 290.6-218.24-124.55-446.13 15.672-435.45 247.61 12.574 272.88 250.66 628.2 464.48 478.59 213.82 149.61 451.91-205.72 464.48-478.59 10.668-231.47-216.3-371.59-434.14-248.33z"/>
 <path d="m857.81 256.07c105.42-65.371 112.57-166.6 171.62-216.71-148.17-19.02-230.05-11.766-299.19 46.898-94.586 80.25-78.5 178.32-78.5 178.32 65.512 33.117 143.51 29.891 206.07-8.5156z"/>
</svg>
