<?xml version="1.0" encoding="UTF-8"?>
<svg width="1200pt" height="1200pt" version="1.1" viewBox="0 0 1200 1200" xmlns="http://www.w3.org/2000/svg">
 <path d="m968.25 547.35c-0.007812-59.746-17.379-118.2-50-168.25l48.699-48.648v-0.003906c17.371-17.371 24.156-42.691 17.797-66.422-6.3555-23.73-24.891-42.266-48.625-48.625-23.73-6.3594-49.051 0.42578-66.422 17.797l-48.699 48.699c-349.6-209.6-622.5 261.4-613.65 568.1 0.69922 37.25-6.6016 90 25.801 117.1 27.352 32.199 79.699 25.352 117.05 25.699 248.65 0.5 616.4-159.3 618.05-445.45zm-672.2 37.648c8.1992-18.648 15.949-36.898 24.449-53.75l54.75 20c4.5508 12.5 53.301 146.8 56.102 154.6l-157.05-57.051c6.1055-21.641 13.363-42.938 21.75-63.801zm-46.051 179.2c3.2617-26.594 8.0859-52.973 14.449-79l40.551 14.801 35 97zm135.85 49.602c-8.6484-23.949-26.699-73.648-35.301-97.25l92.598 33.449 5 1.8008 35.301 97.25zm189.55-189.6 56.199 154.4-154.5-56.051-55.852-154.55zm29.598-29.199c-13.148-36.301-50-138.4-63.898-176.1l176.05 63.898c11.449 31.449 51.852 142.8 63.949 176.1zm141.35-141.5-66.352-183.1c63.785 6.9727 123.28 35.516 168.63 80.906 45.355 45.391 73.848 104.91 80.77 168.7zm149.65-193.8c28.148-29 73.5 16.051 44.102 44.25l-43.699 43.699h-0.003906c-13.219-16.172-28.027-30.977-44.199-44.199zm-406 59.051c43.852-30.82 95.73-48.195 149.3-50 7.4492 20.398 55 150.95 61.051 167.9-71.301-25.852-174.4-63.301-245.5-89.5 10.832-10.508 22.598-20.016 35.148-28.398zm-120.4 130.3c17.34-25.305 36.363-49.41 56.949-72.152l68.398 25 63.949 176.25c-42.398-15.5-180.45-65.898-220.55-80.25h0.003906c9.5625-16.812 19.992-33.117 31.25-48.848zm-19.602 506.25c-25-1.8984-72.25 7.6484-90.551-14.699-9.7148-9.5234-15.133-22.598-15-36.203 0-28.051-0.75-75 1.5508-101.65l110.35 40.301 40.25 110.7c-16.301 1.25-31.602 1.5508-46.602 1.5508zm85.648-5.3008c-8.1992-22.5-25-68.102-32.898-90.449l97.25 35.449 15 40.648c-26.156 6.2812-52.648 11.074-79.352 14.352zm182.3-47.852c-21.727 9.1328-43.965 16.996-66.598 23.551l-56.352-154.25-1-2.9492 154.55 56.102 20 55c-15.949 7.75-32.5 15.398-50.602 22.75zm132.55-71.898c-15 10.75-31.301 21.148-48.5 31.051-14.148-39.449-65-179-80.301-220.55l176.25 64.25 25 68.398c-22.824 20.645-47.031 39.703-72.449 57.051zm130.3-120c-8.3164 12.516-17.773 24.23-28.25 35-15.551-42.051-73.25-200.55-89.5-245.5l167.9 61.051c-1.8438 53.629-19.27 105.56-50.148 149.45z"/>
</svg>
