<?xml version="1.0" encoding="UTF-8"?>
<svg width="1200pt" height="1200pt" version="1.1" viewBox="0 0 1200 1200" xmlns="http://www.w3.org/2000/svg">
 <path d="m947.89 442.6-0.085937-0.40625-0.21484-0.9375c-0.26562-1.2109-1.3438-2.0391-2.543-2.0391-0.070313 0-0.17969 0.011718-0.25391 0.011718-24.613 2.3164-50.578 4.3438-79.367 6.168-7.6328 0.48047-18.109 1.1406-28.812 1.1406-33.254 0-51.637-6.4922-54.66-19.297-5.5781-23.699 35.195-38.039 59.555-46.633l2.7227-0.96094c26.773-9.4805 50.711-17.543 73.141-24.672 0.69531-0.22656 1.2617-0.71875 1.5703-1.3789 0.3125-0.67188 0.32422-1.4297 0.035156-2.1016-0.16797-0.43359-0.33594-0.83984-0.51562-1.2617l-0.097657-0.20312c-0.15625-0.32422-0.27734-0.66016-0.42188-0.99609-0.43359-0.98438-1.3789-1.5977-2.4102-1.5977-0.26562 0-0.55078 0.035156-0.81641 0.13281-22.234 7.3438-45.758 14.629-74.039 22.934-3.2383 0.94922-6.8516 2.1133-10.68 3.3477-13.871 4.4883-31.164 10.078-45.695 10.078-13.066 0-21.613-4.5117-26.172-13.777-3.9844-8.1367-2.7969-26.879 49.945-60.91 24.457-15.77 45.012-28.586 64.691-40.344 0.625-0.37109 1.0312-0.96094 1.1992-1.6445 0.17969-0.69531 0.023437-1.4141-0.35938-2.0039l-0.68359-1.0664-0.10938-0.15625c-0.21484-0.3125-0.43359-0.63672-0.63672-0.96094-0.50391-0.76953-1.332-1.1992-2.1953-1.1992-0.48047 0-0.94922 0.13281-1.3672 0.38281-19.379 11.879-40.297 24.156-65.832 38.617-3.4062 1.9336-7.1758 4.2852-11.148 6.7695-14.258 8.9141-32.016 20.016-47.16 20.016-8.1953 0-14.785-3.2266-20.137-9.8633-15.84-19.68 11.438-47.184 29.508-65.387 2.2695-2.2812 4.3906-4.4141 6.2656-6.3945 20.352-21.238 37.391-38.496 53.652-54.289 1.0195-0.98438 1.0547-2.6172 0.097656-3.6484-0.22656-0.21484-0.42188-0.44531-0.61328-0.66016l-0.26562-0.27734-0.21484-0.23828-0.67188-0.74219c-0.50391-0.51563-1.1641-0.82813-1.8711-0.83984h-0.046875c-0.70703 0-1.3555 0.27734-1.8477 0.75781-16.223 16.152-33.707 32.93-55.02 52.738-2.1953 2.0391-4.5977 4.3789-7.1406 6.8398-14.16 13.766-33.551 32.605-50.039 32.605-5.2812 0-9.875-1.9336-14.051-5.9297-18.984-18.254 0.12109-48.562 14.027-70.715 2.125-3.3594 4.1406-6.5391 5.8438-9.4688 15.012-25.344 27.852-46.355 40.453-66.121 0.71875-1.1406 0.46875-2.6523-0.60156-3.4688l-0.82812-0.63672-0.22656-0.15625c-0.34766-0.27734-0.71875-0.5625-1.0781-0.83984-0.44531-0.33594-1.0078-0.51562-1.5703-0.51562-0.16797 0-0.3125 0.011718-0.45703 0.046874-0.74219 0.13281-1.3672 0.55078-1.7539 1.1758-12.422 19.98-26.137 41.172-41.93 64.801l-0.92578 1.4023c-11.555 17.316-33.059 49.523-52.094 49.523-2.9414 0-5.6758-0.73047-8.375-2.2422-23.438-13.246-10.824-47.594-1.6094-72.66 1.6797-4.5859 3.2773-8.9297 4.5117-12.77 8.8555-27.457 17.23-52.117 25.535-75.395 0.43359-1.2344-0.12109-2.6055-1.2734-3.2031-0.39453-0.20312-0.81641-0.42188-1.2344-0.625l-1.1172-0.55078c-0.37109-0.19141-0.80469-0.28906-1.2461-0.28906-0.30078 0-0.64844 0.058594-0.96094 0.19141-0.69531 0.28906-1.2734 0.82812-1.5234 1.5352-8.3516 24.191-17.148 48.492-26.941 74.34l-0.55078 1.4766c-8.125 21.504-23.242 61.512-43.094 61.512-1.7539 0-3.5391-0.32422-5.3281-0.9375-23.293-8.1016-19.176-46.094-16.453-71.242 0.25391-2.3398 0.49219-4.5859 0.69531-6.6367 2.3633-24.168 5.0391-48.48 7.9453-72.238 0.085937-0.74219-0.14453-1.5-0.64844-2.0508-0.50391-0.53906-1.1992-0.86328-1.957-0.86328h-0.023438c-0.49219 0-0.97266 0.011719-1.4531 0.023437l-1.3789 0.023438c-1.2969 0.023437-2.3867 0.99609-2.543 2.293-3.0352 24.551-6.2539 48.457-9.5508 71.016l-0.44531 3.0352c-3.2539 22.559-8.6992 60.312-30.852 60.312-0.61328 0-1.2734-0.023438-1.9219-0.097656-23.242-2.0898-27.73-42.742-29.879-62.293-2.1719-19.621-4.1758-39.707-6.1211-61.402-0.070312-0.76953-0.46875-1.4414-1.0781-1.8828-0.44531-0.32422-0.98438-0.49219-1.5234-0.49219-0.20312 0-0.39453 0.023437-0.60156 0.058594l-1.4141 0.34766-1.3789 0.32422c-1.2461 0.28906-2.0898 1.4648-1.9922 2.7461 1.7266 21.938 3.0977 41.734 4.1758 60.551 0.81641 14.113-0.28906 43.609-10.344 54.254-2.3164 2.4492-4.8828 3.6367-7.8594 3.6367-0.42188 0-0.83984-0.023438-1.2734-0.070313-25.262-2.7344-34.355-31.031-38.723-44.652-4.8359-15.059-9.7812-31.031-15.098-48.828-0.22656-0.73047-0.74219-1.3203-1.4414-1.6328-0.33594-0.15625-0.69531-0.23828-1.0664-0.23828s-0.74219 0.085937-1.0938 0.25391c-0.45703 0.21484-0.89844 0.42188-1.3555 0.61328l-0.27734 0.13281c-0.38281 0.16797-0.75781 0.34766-1.1406 0.51562-1.1523 0.55078-1.7266 1.8359-1.3789 3.0703 4.9219 17.617 9.1914 33.492 13.043 48.504 1.9062 7.4414 3.4805 19.152 2.1602 29.773-0.99609 8.0039-4.043 18.227-12.887 21.504-2.2305 0.82812-4.5234 1.2461-6.8164 1.2461-13.477 0-26.508-14.855-34.223-28.754-6.4062-11.543-12.938-23.652-19.98-36.984-0.35938-0.66016-0.98438-1.1523-1.7148-1.3203-0.20312-0.035156-0.39453-0.058594-0.61328-0.058594-0.52734 0-1.0664 0.16797-1.5 0.48047l-1.3438 0.96094-0.66016 0.46875-0.64844 0.48047c-1.0312 0.74219-1.3789 2.125-0.80469 3.2656 6.7695 13.715 12.672 25.922 18.035 37.285 6.0352 12.84 11.449 24.719 16.465 36.277-3.5898 4.1875-11.23 14.734-20.16 27.719-6.6719-9.2148-11.711-19.078-14.93-25.453-6.8164-13.441-13.934-27.707-21.793-43.656-0.45703-0.89844-1.3555-1.4531-2.3398-1.4531-0.20312 0-0.43359 0.023438-0.63672 0.085938l-0.58984 0.14453-0.22656 0.046875c-0.3125 0.070313-0.60156 0.15625-0.875 0.22656-0.75781 0.19141-1.3672 0.71875-1.7031 1.4297-0.32422 0.70703-0.32422 1.5117 0.023438 2.2188 7.4648 15.602 14.09 29.641 20.258 42.938 6.2656 13.5 11.184 30.949 8.0039 36.707-0.53906 0.97266-1.2461 1.4414-2.3633 1.5859-0.28906 0.035156-0.58984 0.058594-0.88672 0.058594-9.7305 0-24.625-17.543-34.414-32.543-7.1523-10.969-14.531-22.402-22.559-35.004-0.37109-0.60156-0.97266-0.99609-1.6562-1.1523-0.17969-0.035156-0.35937-0.058594-0.55078-0.058594-0.50391 0-0.99609 0.14453-1.4297 0.43359l-0.74219 0.49219-0.25391 0.17969-0.46875 0.3125c-1.1523 0.78125-1.4883 2.3398-0.75781 3.5273 7.9219 12.84 14.879 24.227 21.254 34.812 7.1758 11.902 13.691 22.922 19.934 33.637-1.2227 2.1484-3.0703 6.3008-6.3242 14.387-2.6289 6.5273-7.7539 19.777-12.469 35.09-1.8711 6.0703-4.7773 13.043-7.8594 20.426-10.008 24.012-22.477 53.879-4.957 71.496 53.965 54.238 100.02 111.83 142.57 166.18 42.758 54.602 66.457 87.18 89.34 163.02 0.70703 69.07 1.6797 289.34-5.9023 378.5-3.3359 39.254 57.301 69.527 59.16-46.152 1.2461-78.527 11.102-97.98 42.098-159.68 36.324-72.359-11.879-57.383-47.902-125.73-0.34766-10.738-1.0664-20.438-1.9219-29.195 14.316 1.043 28.465 1.0547 36.168 1.0547 17.113 0 32.734-0.63672 41.652-1.2109 15.457-1.0195 29.051-3.0469 35.773-4.1641 8.1016-1.3555 12.336-2.2578 14.664-2.9766 8.8555 8.6641 17.914 17.688 27.648 27.527 9.1211 9.168 18.434 18.707 28.535 29.148 0.52734 0.53906 1.2109 0.81641 1.8945 0.81641 0.625 0 1.2227-0.23828 1.7148-0.66016l0.43359-0.37109 0.20312-0.20312 0.25391-0.20312 0.42188-0.38281c0.50391-0.48047 0.81641-1.1289 0.85156-1.8242 0.011719-0.70703-0.23828-1.3789-0.71875-1.8945-10.043-10.68-19.309-20.652-28.379-30.48-18.852-20.52-26.543-34.668-22.883-42.023 0.046875-0.058593 0.070312-0.13281 0.10938-0.21484 0.86328-2.207 2.2422-3.1211 4.5859-3.1211 8.9766 0 25.668 13.57 31.129 18.035 11.328 9.2266 23.305 19.117 36.637 30.203 0.46875 0.40625 1.0664 0.61328 1.6797 0.61328 0.15625 0 0.30078-0.011719 0.46875-0.035157 0.75781-0.14453 1.4141-0.625 1.7891-1.2852l0.3125-0.61328 0.10938-0.19141c0.15625-0.25391 0.26562-0.48047 0.39453-0.70703 0.60156-1.0938 0.34766-2.4609-0.58984-3.2539-13.344-11.375-25.414-21.793-36.949-31.895-5.1367-4.4766-13.621-11.902-21.012-20.387 14.891-5.8203 26.734-10.859 31.621-13.379 10.055 7.8008 20.242 15.949 31.078 24.84 10.008 8.207 20.398 16.934 31.754 26.664 0.45703 0.40625 1.0664 0.61328 1.6797 0.61328 0.60156 0 1.1992-0.19141 1.668-0.60156l1.2344-1.0078 1.2227-1.0312c0.57422-0.49219 0.92578-1.1992 0.9375-1.9336 0.011719-0.75781-0.3125-1.4883-0.85156-1.9922-11.172-10.117-21.277-19.414-30.926-28.488-20.484-19.273-25.906-34.465-16.621-46.441 0.023438-0.046876 0.046875-0.070313 0.085938-0.12109 4.2734-6.1914 10.273-9.2031 18.312-9.2031 11.746 0 25.043 6.5391 34.031 11.426 13.586 7.4531 27.898 15.48 43.812 24.625 0.38281 0.23828 0.85156 0.34766 1.2852 0.34766 0.74219 0 1.4883-0.32422 2.0156-0.96094 0.33594-0.38281 0.64844-0.78125 0.96094-1.2109l0.21484-0.23828 0.71875-0.91016c0.48047-0.58984 0.69531-1.3203 0.55078-2.0898-0.13281-0.74219-0.57422-1.4141-1.2227-1.7891-15.828-9.4805-30.098-18.203-43.609-26.664-12.145-7.5859-40.465-25.344-33.816-48.18 2.5078-8.6523 9.8398-12.84 22.355-12.84 13.777 0 30.527 5.3047 38.555 7.8359 17.855 5.6523 36.73 11.867 57.684 18.984 0.25391 0.085938 0.53906 0.13281 0.81641 0.13281 0.9375 0 1.8359-0.50391 2.3164-1.3906l0.35937-0.71875 0.28906-0.53906c0.23828-0.40625 0.45703-0.85156 0.69531-1.2734 0.32422-0.67188 0.35937-1.4648 0.097656-2.1602-0.27734-0.70703-0.83984-1.2461-1.5469-1.4883-20.652-7.2969-39.648-14.195-58.02-21.086-1.8242-0.68359-3.8047-1.3906-5.9141-2.1367-19.535-7.0078-49.078-17.594-47.074-42.359 1.0664-13.105 12.191-19.199 34.98-19.199 9.7695 0 20.172 1.1523 28.5 2.1016 2.1133 0.22656 4.1172 0.45703 5.9883 0.64844 23.293 2.4102 47.258 5.1836 71.195 8.2422 0.12109 0.011718 0.23828 0.011718 0.3125 0.011718 1.1758 0 2.207-0.76953 2.5312-1.9219l0.19141-0.66016 0.19141-0.68359c0.097657-0.38281 0.23828-0.80469 0.33594-1.2109l0.046875-0.15625c0.20312-0.73047 0.058594-1.5-0.35938-2.1367-0.40625-0.625-1.0781-1.043-1.8125-1.1523-23.711-3.0234-47.914-6.4219-71.977-10.094-3.0117-0.45703-6.3594-0.88672-9.8984-1.3203-24.625-3.0977-58.379-7.3203-61.703-33.238-0.625-4.7891 0.46875-8.8789 3.3125-12.504 10.547-13.332 42.07-16.703 62.93-18.926 2.1016-0.22656 4.1172-0.43359 5.9648-0.64844 27.504-3.1094 53.242-5.6523 78.695-7.8008 0.74219-0.058594 1.4414-0.44531 1.8828-1.043 0.43359-0.60156 0.61328-1.3555 0.44531-2.1016zm-527.38-167.93c-0.83984 0.99609-1.8828 1.4531-3.2891 1.4531-1.1875 0-2.6406-0.34766-4.3086-1.0312-8.8789-3.6719-13.883-14.941-17.426-27.145 8.0742-4.2734 16.586-7.6211 25.367-10.246 1.9844 12.812 4.4805 31.316-0.34375 36.969zm56.102-11.27-0.046876 1.0781c-0.71875 12.91-2.1836 39.781-12.059 39.781-1.8008 0-3.9609-0.80469-6.4062-2.3984-18.949-12.359-24.961-44.281-28.547-63.359-0.20312-1.0664-0.38281-2.0273-0.57422-3.0234 15.66-3.7305 32.16-5.0273 49.105-4.0938-0.40625 10.562-0.86328 21.23-1.4727 32.016zm233.18 395.07c-9.625-7.6094-18.059-16.656-20.449-28.055-0.48047-2.293-0.79297-5.3984 0.53906-7.0664 0.88672-1.1289 2.6758-1.6797 5.2305-1.6797 8.6055 0 22.824 6.2031 33.227 10.738 0.71875 0.3125 1.332 0.58984 2.0156 0.875-5.7656 9.0469-12.594 17.496-20.562 25.188zm24.898-32.316c-0.30078-0.13281-0.57422-0.23828-0.88672-0.37109-2.2305-1.043-4.6914-2.1602-7.2969-3.3125-18.348-8.2422-43.477-19.5-51.973-42.289-1.5977-4.2852-1.7031-7.4648-0.34766-9.4336 1.5977-2.3047 5.6875-3.5156 11.809-3.5156 8.1367 0 18.227 2.0625 26.316 3.7188 1.4414 0.28906 2.7969 0.55078 4.0781 0.81641 12.121 2.3867 23.723 4.8125 35.207 7.3086-3.3086 16.766-8.8398 32.629-16.906 47.078zm18.203-54.312c-11.699-2.6992-23.965-5.6523-37.223-8.9883-17.676-4.4648-54.445-13.727-63.863-34.703-2.4258-5.4375-2.6875-9.6836-0.79297-12.961 4.5-7.7656 20.293-9.3477 30.742-10.391l1.7031-0.17969c16.789-1.7266 31.848-2.9297 46.117-3.707 0.91016-0.046875 1.7148-0.5625 2.1484-1.3555s0.42188-1.7539-0.023437-2.5312l-0.66016-1.1289-0.25-0.41016-0.38281-0.69531c-0.45703-0.82812-1.332-1.3203-2.2695-1.3203h-0.17969c-14.09 0.99609-29.062 1.6445-47.148 2.0625-2.125 0.046875-4.4023 0.17969-6.8516 0.33594-3.4336 0.20312-7.3438 0.44531-11.27 0.44531-13.094 0-29.484-2.3164-40.598-20.387-3.1211-5.0742-3.9844-9.9258-2.6875-14.809 2.6758-10.008 14.074-17.977 23.137-22.895 13.703-7.4023 25.297-13.273 36.527-18.48 0.70703-0.32422 1.2344-0.9375 1.4023-1.6914 0.21484-0.74219 0.070312-1.5469-0.35938-2.1836l-0.78125-1.0781-0.70703-1.0078c-0.51562-0.73047-1.3555-1.1289-2.207-1.1289-0.37109 0-0.74219 0.070312-1.1172 0.25391-10.992 5.3633-22.98 10.691-37.738 16.789-2.0508 0.85156-4.1992 1.957-6.4922 3.1094-6.1914 3.1445-13.211 6.7188-20.746 6.7188-8.4961 0-16.32-4.6445-23.891-14.184-15.852-20.004-3.5898-35.449 5.375-46.715 1.0938-1.3906 2.125-2.6875 3.0234-3.8984 9.5625-12.816 17.688-23.125 25.57-32.438 0.81641-0.97266 0.81641-2.4102 0-3.3711l-0.82812-0.98437-0.34766-0.38281-0.51562-0.625c-0.49219-0.58984-1.2227-0.91016-1.9805-0.91016h-0.035156c-0.75781 0.011719-1.4883 0.35938-1.9805 0.97266-7.7773 9.5742-16.332 19.367-26.891 30.828-1.1289 1.2227-2.3164 2.6172-3.5625 4.0781-5.8906 6.9492-13.246 15.59-22.02 15.59-5.1133 0-10.465-3.0469-15.949-9.0586-17.988-19.777-11.398-40.285-6.5742-55.262 0.73047-2.3047 1.4414-4.5 2.0039-6.5273 4.8594-17.473 9.1914-31.812 13.609-45.191 0.3125-0.94922 0.046875-2.0039-0.66016-2.6992l-0.69531-0.67188-0.22656-0.21484c-0.3125-0.30078-0.625-0.61328-0.94922-0.92578-0.49219-0.46875-1.1406-0.73047-1.8125-0.73047-0.20312 0-0.43359 0.023437-0.63672 0.085937-0.88672 0.22656-1.5859 0.88672-1.8359 1.7539-4.2734 13.609-9.1562 27.926-14.953 43.777l-0.34766 0.94922c-3.875 10.598-10.344 28.344-20.508 28.344-2.9297 0-6.1914-1.4648-9.6953-4.3789-20.23-16.738-19.078-42.277-18.254-60.938 0.14453-3.3945 0.28906-6.625 0.30078-9.5273 0.023438-12.18 0.15625-23.52 0.35938-34.367 69.984 6.457 146.09 49.992 198.38 117.24 52.582 67.637 79.98 152.57 69.094 222.7z"/>
</svg>
