<?xml version="1.0" encoding="UTF-8"?>
<svg width="1200pt" height="1200pt" version="1.1" viewBox="0 0 1200 1200" xmlns="http://www.w3.org/2000/svg">
 <path d="m958.62 665.65s-16.41 23.125-51.398 39.672c-22.207 10.504-47.117 13.652-71.594 11.543-41.199-3.5469-125.04-2.8789-146.62 57.387-5.8516 16.332-5.6016 33.902-0.59375 50.109-20.195 13.488-39.828 30.285-56.191 50.691v-197.22c23.172-40.039 47.133-71.668 68.062-95.523 12.512 10.637 30.891 16.477 53.449 16.648 40.344 0.3125 75.551-24.762 94.598-60.328 10.473-19.559 33.125-44.438 80.406-71.473 0 0-188.15-81.289-240.4 18.875-9.8477 18.875-12.141 40.875-7.332 61.418-14.938 16.25-31.637 36.465-48.781 60.797l-0.003907-226.83c17.465-3.543 34.133-12.012 47.68-25.555 31.656-31.656 36.574-81.254 11.75-118.51l-78.18-117.34-78.18 117.34c-24.82 37.258-19.906 86.855 11.754 118.51 13.543 13.543 30.211 22.012 47.672 25.555v212.45c-14.297-22.348-30.848-40.383-47.316-54.664 2.5234-18.082-0.25-36.797-8.793-53.168-52.254-100.16-240.4-18.875-240.4-18.875 47.281 27.035 69.934 51.918 80.406 71.473 19.047 35.566 54.25 60.641 94.598 60.328 26.273-0.20312 46.906-8.0547 59.117-22.305 27.812 27.219 54.387 67.289 62.395 124.29v188.1c-14.938-21.039-31.758-38.453-48.867-52.75 5.2539-24.988 2.2148-51.5-9.7109-74.363-65.434-125.43-301.04-23.633-301.04-23.633 59.203 33.855 87.574 65.012 100.69 89.5 23.852 44.535 67.938 75.934 118.45 75.543 34.258-0.26562 60.961-10.844 75.949-30.125 25.684 23.441 49.734 54.969 64.523 97.156v90.859c0 10.355 8.3945 18.75 18.75 18.75s18.75-8.3945 18.75-18.75v-101.23c8.9375-46.125 40.906-79.508 75.227-102.86 0.64844 0.6875 1.1875 1.457 1.8594 2.125 15.621 15.484 40.102 30.582 77.219 33.477 41.328 3.2266 82.762-10.449 114.65-36.938 38.312-31.812 79.723-90.742 57.441-190.16z"/>
</svg>
