<?xml version="1.0" encoding="UTF-8"?>
<svg width="1200pt" height="1200pt" version="1.1" viewBox="0 0 1200 1200" xmlns="http://www.w3.org/2000/svg">
 <path d="m261.32 275.72c-25.594 0-49.734 10.312-67.688 27.516h16.406c47.719 0 91.312 25.078 115.69 65.062 6.4688-2.1562 13.031-3.8906 19.781-5.0625-4.2656-18.562-9.7969-47.25-12.422-79.453-12.656-5.2969-24.328-8.1094-34.688-8.1094h-36.984z"/>
 <path d="m522.74 753.98c14.812 16.5 34.781 27.375 56.812 30.938 39.188-111.23 95.531-229.78 124.45-272.16 0.84375-1.2656 1.875-2.4375 2.7656-3.6562l4.6875-63.281c3.8906-52.266-33.609-98.016-85.453-104.16-0.9375-0.09375-1.8281-0.28125-2.7188-0.51562-2.2969-0.28125-4.7344-0.14062-7.125-0.46875-0.79687-0.09375-1.5938-0.046875-2.3906-0.046875h-37.031c-36.281 0-68.578 19.453-85.781 50.531 34.406 27.656 53.438 70.406 50.109 115.31l-18.375 247.45z"/>
 <path d="m457.64 413.34c-14.109-8.8125-29.438-13.688-45.703-14.484-1.9688-0.09375-3.8906-0.23438-5.8594-0.23438h-37.125c-1.9219 0-3.8438 0.09375-5.6719 0.23438-13.312 0.75-26.062 4.125-37.922 9.9844-35.719 17.766-56.906 55.031-54 94.969l18.422 249.56c0.32812 5.0156 1.125 9.6562 2.0625 14.297 10.031 44.906 49.406 76.5 95.719 76.5 49.359 0 91.219-37.031 97.359-86.109l3.6094-48.094 15.234-206.16c2.7188-36.516-14.953-71.156-46.078-90.422z"/>
 <path d="m233.95 506.53c-3.5625-48.656 18.844-94.359 57.984-121.4-17.906-27.328-48.469-44.391-81.938-44.391h-36.984c-7.7812 0-15.234 0.84375-22.172 2.5312-47.484 10.969-79.219 54.094-75.562 102.61l18.562 249.71c3.75 50.812 46.641 90.656 97.641 90.656 22.828 0 44.25-8.1562 61.734-22.359-0.375-2.7188-0.65625-5.3438-0.84375-7.9219l-18.375-249.42z"/>
 <path d="m423.84 163.97-33.516-3.1406c-2.7188-0.23438-5.3438 1.0781-6.375 3.1875-9.375 20.109-14.438 46.125-14.953 77.391-0.98438 48.609 8.9531 96.938 14.438 119.62h11.438c0.28125-8.3438 0.375-16.641 1.0781-25.031 2.5312-32.906 7.9688-67.219 16.125-101.81 4.9219-21.094 10.781-41.906 17.344-61.734 0.84375-2.625-0.09375-4.6406-0.75-5.625s-2.1094-2.6719-4.875-2.9062z"/>
 <path d="m1052.9 462.66c-7.4531 1.5938-15.094-1.5469-19.312-7.875-4.2656-6.2812-4.3125-14.531-0.09375-20.859 14.391-21.703 39.188-73.781 19.312-87.375-19.922-13.547-59.344 28.5-74.25 49.781-4.3125 6.2344-12 9.2344-19.5 7.5469-7.4062-1.6406-13.125-7.6406-14.391-15.141-3.5625-20.906-14.719-53.906-28.406-61.922-2.5312-1.4531-5.1094-2.1094-9.5625-0.51562-15.891 5.7188-17.016 50.156-3.5625 105.33 25.172 5.0625 49.312 15.094 71.156 30s40.031 33.75 53.953 55.312c56.438-7.5469 97.312-24.938 96.797-41.906-0.14062-4.6406-1.6875-6.75-3.9375-8.5781-12.469-9.7969-47.391-8.1562-68.203-3.8438z"/>
 <path d="m476.76 275.72c-9.8906 0-24 3.75-36.234 8.2031-3.1875 18.656-5.7656 37.125-7.125 55.125-0.70312 8.3438-0.75 16.5-1.0312 24.703 9.0469 1.7812 17.906 4.5938 26.438 8.25 23.906-42.328 68.25-68.766 118.03-68.766h4.7812c-17.906-17.297-41.906-27.469-67.875-27.469h-36.984z"/>
 <path d="m953.11 492.66c-26.344-18-56.859-27.328-88.078-27.328-9.7969 0-19.641 0.9375-29.484 2.7656-30 5.6719-57 19.688-78.656 40.219l92.25 62.953c8.5312 5.8594 10.781 17.531 4.9219 26.062-3.6094 5.3438-9.5156 8.2031-15.516 8.2031-3.6562 0-7.3125-1.0312-10.547-3.2812l-95.203-64.969c-17.719 27.188-49.312 89.109-80.672 163.82l90.094 61.453c8.5312 5.8594 10.781 17.531 4.9219 26.062-3.6094 5.3438-9.5156 8.2031-15.516 8.2031-3.6562 0-7.3125-1.0312-10.547-3.2812l-83.438-56.906c-8.5312 21.562-16.875 43.875-24.703 66.422-1.125 3.2812-2.1094 6.2812-3.1875 9.4219-0.046875 0.09375-0.046875 0.14062-0.09375 0.23438-49.031 144.37-45.516 210.56-27.047 223.13 17.156 11.766 73.219-5.6719 175.36-88.078l-37.312-25.453c-8.5312-5.8594-10.781-17.531-4.9219-26.062 5.8125-8.5312 17.531-10.781 26.062-4.9219l46.219 31.547c0.09375-0.09375 0.1875-0.14062 0.28125-0.23438 55.125-47.203 106.41-97.875 144.94-139.4l-57.234-39.047c-8.5312-5.8594-10.781-17.531-4.9219-26.062 5.8125-8.5781 17.531-10.781 26.062-4.9219l61.406 41.906c16.219-18.562 28.641-34.031 35.766-44.438 23.625-34.641 32.344-76.406 24.562-117.56-7.7812-41.203-31.125-76.875-65.812-100.5z"/>
</svg>
