<?xml version="1.0" encoding="UTF-8"?>
<svg width="1200pt" height="1200pt" version="1.1" viewBox="0 0 1200 1200" xmlns="http://www.w3.org/2000/svg">
 <path d="m655.64 912.37c-4.4062 3.8906-8.7188 7.7344-13.031 11.531 0.75-9.3281 2.8594-20.25 5.9062-30.844 3.7031-12.797 8.6719-25.078 14.203-33.422 92.906-140.76 180-153.66 266.34-166.4 49.125-7.2656 98.062-14.531 147.79-44.766l-0.1875 1.125c-8.2969 47.203-21.422 121.6-161.29 133.18-125.86 10.406-200.53 76.875-259.74 129.61zm-9.8906-30.281c-1.0312-0.79688-1.4062-2.1562-0.9375-3.4219 8.8594-22.359 26.297-53.297 45.938-88.172 31.312-55.641 68.344-121.4 84.797-177.14 19.781-67.172 26.906-135.56 23.859-196.64-3-60.469-15.891-113.62-36.188-151.13-5.3906 126.05-42.188 197.48-78.797 268.55-17.859 34.641-35.625 69.141-49.641 109.88-11.953 34.781-18.562 91.312-17.484 146.29 0.9375 46.641 7.3594 92.062 20.719 121.92 1.125-6.75 2.7188-13.828 4.7344-20.812 0.89062-3.1875 1.875-6.3281 2.9531-9.375zm184.74-173.76c49.641-24.75 78.562-80.438 106.73-134.81 33.656-64.875 66.328-127.87 132.32-136.82-181.92-50.156-260.29 125.68-300.98 216.98-7.5938 17.016-13.875 31.125-19.359 40.5-16.5 33.938-35.766 68.156-53.297 99.234-7.9688 14.109-15.562 27.609-22.312 40.078 53.812-73.969 105.8-107.48 156.84-125.16zm-177.61-124.18c1.4062-5.0625 2.7656-10.734 3.9844-16.969 8.7188-43.688 12.188-111.75 3.7031-171.61-8.2969-58.688-27.984-109.36-65.25-120.47 21.703 78.094 8.9062 121.03-4.875 167.29-10.031 33.609-20.531 68.953-18.375 121.13 12.656 54.609 20.766 110.62 28.641 164.68 3.5625 24.656 7.125 48.891 10.969 72.375-0.14062-3.3281-0.23438-6.7031-0.28125-10.031-1.0781-55.641 5.625-112.97 17.766-148.36 7.125-20.672 15.141-39.703 23.719-57.984zm-230.9 138.74c0.09375 0.046875 0.14063 0.09375 0.23438 0.09375 38.766 17.156 72.328 40.125 103.08 61.547 28.781 59.625 61.453 111.66 90.047 135.71-38.766-13.922-69.469-34.875-103.83-58.266-69.938-47.625-154.92-105.52-353.02-136.78 87.328-34.219 157.08-34.641 215.39-19.266 16.922 4.4531 32.906 10.266 48.141 16.969zm51.891-85.969-0.046876-0.14062c-1.9219-8.8594-4.2656-17.016-6.9375-24.703-8.1562-31.5-12.703-59.297-12.188-79.781 0.79688-30.516-9.3281-79.734-23.859-129.61-14.719-50.625-34.031-102.05-50.953-135.42 162.71 101.95 190.26 291.71 214.92 461.72 10.406 71.766 20.344 140.02 39.656 196.92-30.469-13.453-69.891-73.406-104.11-144.52-0.046874-0.09375-0.09375-0.1875-0.14062-0.28125-1.2188-2.4844-2.3906-4.9688-3.5625-7.5-21-44.672-39.75-93-52.828-136.64zm-12.375-22.312c-13.547-39.094-36.75-64.969-67.125-98.766-35.062-39.047-79.547-88.594-129.66-180.79 3.3281 107.77 50.812 172.64 93.328 230.72 10.312 14.109 20.344 27.797 29.391 41.578l0.046875 0.09375c22.125 33.75 38.391 68.25 38.859 110.91 34.969 15.656 65.672 35.906 93.938 55.453-20.672-44.156-39.047-91.828-51.984-135.1-0.09375-0.1875-0.14062-0.375-0.1875-0.60938l-0.046875-0.23437c-2.3438-7.9219-4.5469-15.656-6.5156-23.203zm-79.031-3.9375c-0.32813-0.46875-0.70313-0.89062-1.0312-1.3125-23.625-29.812-74.203-52.359-126.71-61.594-49.219-8.6719-99.938-5.5781-131.58 14.156 43.922 1.5938 86.859 14.625 124.78 36.234 40.688 23.25 75.562 56.391 99.562 96.094 9.6094 1.5938 18.891 3.5625 27.938 5.9531 15.75 4.1719 30.656 9.4219 44.906 15.469-1.125-39.938-16.734-72.75-37.828-105.05zm21.562 193.18c42.422 20.953 74.672 42.938 104.2 63.047 40.828 27.797 76.594 52.172 126.89 65.766-3.5156 0.5625-7.0781 1.125-10.688 1.7344-9.0469-0.1875-17.625-0.32813-25.781-0.42188-74.391-0.98437-116.81-1.5469-226.97-69.094-23.484-14.391-59.625-21.328-95.859-21.141-28.734 0.14062-57.656 4.7344-80.578 13.641 75.844-67.5 128.86-61.922 203.63-54.047l5.1562 0.5625zm239.16 127.55c60.656-9.8906 107.53-19.172 149.29-37.875 44.625-20.016 83.531-50.953 127.45-105.14-1.3594 0.14063-2.6719 0.23438-4.0781 0.375-123.89 10.266-197.72 75.984-256.26 128.11-5.6719 5.0625-11.203 9.9375-16.453 14.578z" fill-rule="evenodd"/>
</svg>
