<?xml version="1.0" encoding="UTF-8"?>
<svg width="1200pt" height="1200pt" version="1.1" viewBox="0 0 1200 1200" xmlns="http://www.w3.org/2000/svg">
 <path d="m600 757.87c-23.391 0-43.5-16.875-56.391-31.266 34.172 9.5625 70.5 8.25 103.88-3.75 2.8594 3.375 5.8594 6.375 8.8594 9.5156h0.046875c-14.156 16.359-34.781 25.688-56.391 25.5zm82.125-1.6406c-4.2656-3.375-8.3906-6.9844-12.516-10.734-17.625 19.922-42.984 31.266-69.609 31.125-40.359 0-70.641-36-82.359-52.359-6 8.8594-12.75 17.25-20.156 24.984 20.391 16.5 68.625 61.125 68.625 115.88 0 61.641-25.734 201.98-28.641 217.64 1.125 5.7656 14.016 18.75 62.484 18.75 42 0 50.016-8.4844 51.609-10.266h0.046875c0.23438-0.51562 0.23438-1.125 0-1.6406-0.42188-0.9375-0.65625-1.9688-0.75-3l-20.484-241.6c-2.25-7.5-6.6094-41.391 51.75-88.781zm331.13-172.5c0.046875-36.328-9.9375-71.953-28.781-102.98-18.891-31.078-45.938-56.297-78.234-72.984-7.875-2.25-65.859-17.625-106.5-7.5-5.0156 1.2188-10.125-1.8281-11.344-6.8906-1.2656-5.0625 1.8281-10.125 6.8438-11.391 39.75-9.8906 91.359 1.2656 110.02 6 11.906-19.172 18.281-41.297 18.375-63.844-0.14062-68.203-55.406-123.47-123.61-123.52-15.281 0.046875-30.375 2.9531-44.531 8.625 7.7344 18.469 12.984 37.922 15.656 57.75 0.5625 5.1562-3.1406 9.7969-8.25 10.359h-1.125c-4.7344 0-8.7188-3.5625-9.2812-8.25-2.8125-21.047-8.8125-41.531-17.859-60.75-26.016-48.188-69.938-84.281-122.29-100.41-52.359-16.172-108.94-11.109-157.64 14.062-48.656 25.172-85.5 68.438-102.56 120.47 11.016 0.75 21.422 5.4844 29.25 13.266 3.6562 3.6562 3.6562 9.6094 0 13.266-3.7031 3.6562-9.6562 3.6562-13.359 0-7.0781-6.75-17.016-9.4688-26.531-7.2656h-1.7344c-47.25 2.5312-89.484 30.328-110.53 72.75-21 42.422-17.484 92.859 9.1406 132 13.875-11.766 45.375-30.984 101.77-27.75 5.1562 0.42188 9.0938 4.8281 8.8594 9.9844-0.375 5.1562-4.8281 9.0469-9.9844 8.7656-68.016-3.8906-93.234 27.609-94.266 28.875-0.98438 1.2656 0 0 0 0l-0.60938 0.75c-36.141 33.75-56.109 81.328-54.844 130.78 1.2656 49.406 23.672 95.906 61.5 127.74 37.828 31.828 87.516 45.891 136.4 38.672 48.938-7.2188 92.391-35.016 119.44-76.453-84.75-51-80.109-119.25-79.875-122.26 0.046875-2.5781 1.125-5.0625 3.0938-6.8438 1.9219-1.7344 4.5-2.625 7.0781-2.3906 2.625 0.23438 5.0156 1.5469 6.6094 3.6094s2.25 4.6875 1.8281 7.2656c0 2.625-3.8906 63.984 78.75 109.27 5.25 2.8594 10.875 5.7656 17.625 8.8594 31.359 9.6562 64.922 9.6562 96.281 0-9.2344-17.297-15.141-36.141-17.391-55.641-0.51562-5.1562 3.2344-9.75 8.3906-10.359 5.1094-0.51562 9.7031 3.2344 10.219 8.3906 2.3906 20.062 9.0938 39.328 19.781 56.484 34.125 43.078 84.656 70.078 139.45 74.578 54.797 4.4531 109.03-13.969 149.72-50.953 40.688-36.938 64.266-89.156 65.062-144.14z"/>
</svg>
