<?xml version="1.0" encoding="UTF-8"?>
<svg width="1200pt" height="1200pt" version="1.1" viewBox="0 0 1200 1200" xmlns="http://www.w3.org/2000/svg">
 <path d="m780 489.6 52.801-12 36-45.602 1.1992 36 102-24 36-45.602 1.1992 36 159.6-37.199c-44.398-36-276-202.8-466.8-25.199l42-52.801v-54l21.602 25.199 58.801-76.801v-54l21.602 25.199 92.398-118.8c-49.199 0-283.2 12-339.6 208.8-55.199-194.4-289.2-206.4-338.4-206.4l92.398 118.8 21.602-25.199v54l58.801 76.801 21.602-25.199v54l42 52.801c-190.8-180-422.4-12.004-466.8 22.797l159.6 37.199 1.1992-36 36 45.602 102 24 1.1992-36 36 45.602 52.801 12c-196.8 13.199-265.2 229.2-277.2 274.8l138-58.801-19.199-27.602 51.602 13.199 88.801-38.398-19.199-27.602 51.602 13.199 122.4-52.801-32.398 544.8h151.2l-33.602-544.8 122.4 52.801 51.602-13.199-19.199 27.602 88.801 38.398 51.602-13.199-19.199 27.602 138 58.801c-9.6094-45.602-78.008-261.6-274.81-274.8z"/>
</svg>
