<?xml version="1.0" encoding="UTF-8"?>
<svg width="1200pt" height="1200pt" version="1.1" viewBox="0 0 1200 1200" xmlns="http://www.w3.org/2000/svg">
 <path d="m224.95 123.7-74.75 43.301 74.75 43.25c134.45 77.852 225.05 223.3 225.05 389.75s-90.602 311.9-225.05 389.75l-74.75 43.25 74.75 43.301c80.949 46.852 174.9 73.699 275.05 73.699 303.55 0 550-246.45 550-550s-246.45-550-550-550c-100.15 0-194.1 26.852-275.05 73.699zm124.85 52c47-16.648 97.551-25.699 150.2-25.699 248.35 0 450 201.65 450 450s-201.65 450-450 450c-52.648 0-103.2-9.0508-150.2-25.699 122.25-100.9 200.2-253.6 200.2-424.3s-77.949-323.4-200.15-424.3z" fill-rule="evenodd"/>
</svg>
