<?xml version="1.0" encoding="UTF-8"?>
<svg width="1200pt" height="1200pt" version="1.1" viewBox="0 0 1200 1200" xmlns="http://www.w3.org/2000/svg">
 <path d="m635.16 90.469c-0.70312-0.9375-1.6406-1.6406-2.1094-2.3438l-0.23438-0.23438c-8.4375-7.9688-19.922-12.891-32.578-12.891-12.891 0-24.375 4.9219-32.578 12.891l-0.23438 0.23438c-0.70312 0.70312-1.4062 1.4062-2.1094 2.3438-14.297 14.766-32.344 33.75-52.5 56.484-40.781 46.172-90.469 107.81-137.11 180-78.281 121.41-147.42 272.11-150.23 429.14 0 3.0469-0.23438 6.3281-0.23438 9.375 0 46.172 9.1406 90.234 25.547 130.78 9.6094 23.438 21.562 45.469 35.625 66.094 66.797 97.969 182.34 162.66 313.59 162.66 207.19 0 375-161.02 375-359.53 0-299.77-246.56-579.84-339.84-675zm-35.156 903.28c-37.031 0-71.953-8.6719-102.89-23.672 154.45-33.75 277.5-151.64 318.28-303.52 12.188 28.359 19.219 59.766 19.219 92.812-0.23438 129.38-105.23 234.38-234.61 234.38z"/>
</svg>
