<?xml version="1.0" encoding="UTF-8"?>
<svg width="1200pt" height="1200pt" version="1.1" viewBox="0 0 1200 1200" xmlns="http://www.w3.org/2000/svg">
 <path d="m1053.8 1010.6h-907.5c-11.25 0-18.75-7.5-18.75-18.75s7.5-18.75 18.75-18.75h905.62c11.25 0 18.75 7.5 18.75 18.75s-7.5 18.75-16.875 18.75z"/>
 <path d="m888.75 806.25c-7.5 1.875-11.25 9.375-13.125 16.875-3.75 7.5 0 16.875 7.5 22.5 18.75 13.125 31.875 35.625 31.875 58.125 0 39.375-31.875 69.375-69.375 69.375h-116.25l39.375-165 112.5-95.625c7.5-7.5 9.375-18.75 1.875-26.25s-18.75-9.375-26.25-1.875l-73.125 61.875 33.75-136.88c1.875-9.375-3.75-20.625-13.125-22.5s-20.625 3.75-22.5 13.125l-35.625 131.25-31.875-95.625c-3.75-9.375-13.125-15-24.375-11.25-9.375 3.75-15 13.125-11.25 24.375l50.625 151.88-41.25 174.38h-73.125v-309.38c0-3.75 0-7.5-1.875-9.375l-76.875-131.25 86.25-133.12c5.625-9.375 3.75-20.625-5.625-26.25s-20.625-3.75-26.25 5.625l-91.875 142.5c-3.75 5.625-3.75 13.125 0 18.75l80.625 136.88v303.75h-45l-63.75-168.75 69.375-61.875c7.5-7.5 9.375-18.75 1.875-26.25s-18.75-9.375-26.25-1.875l-65.625 56.25-75-91.875c-5.625-7.5-18.75-9.375-26.25-1.875-7.5 5.625-9.375 18.75-1.875 26.25l84.375 105 63.75 165h-157.5c-39.375 0-69.375-31.875-69.375-69.375 0-39.375 31.875-69.375 69.375-69.375h1.875 7.5c11.25 0 18.75-7.5 18.75-18.75s-7.5-18.75-18.75-18.75c-58.125 0-106.88-48.75-106.88-106.88s48.75-106.88 106.88-106.88c43.125 0 82.5 26.25 97.5 65.625 3.75 9.375 15 13.125 24.375 9.375s13.125-15 9.375-24.375c-22.5-54.375-75-88.125-133.12-88.125h-1.875c-1.875-7.5-3.75-16.875-3.75-24.375 0-58.125 48.75-106.88 106.88-106.88 11.25 0 18.75-7.5 18.75-18.75 0-7.5-5.625-15-11.25-16.875-13.125-16.875-18.75-35.625-18.75-56.25 0-52.5 41.25-93.75 93.75-93.75 45 0 82.5 30 91.875 73.125 0 1.875 0 1.875 1.875 3.75 0 1.875 0 1.875 1.875 3.75l5.625 5.625c3.75 1.875 7.5 3.75 13.125 1.875h1.875c1.875 0 1.875-1.875 3.75-1.875 0 0 1.875 0 1.875-1.875 1.875-1.875 3.75-1.875 3.75-3.75l1.875-1.875c16.875-26.25 46.875-41.25 76.875-41.25 52.5 0 93.75 41.25 93.75 93.75v5.625c-9.375-1.875-18.75-1.875-28.125-1.875-78.75 0-144.38 65.625-144.38 144.38 0 11.25 1.875 20.625 3.75 31.875 1.875 9.375 13.125 16.875 22.5 15s16.875-13.125 15-22.5c-1.875-7.5-1.875-15-1.875-24.375 0-58.125 48.75-106.88 106.88-106.88s106.88 48.75 106.88 106.88c0 24.375-9.375 48.75-24.375 67.5-5.625 5.625-5.625 15-1.875 22.5 1.875 1.875 1.875 3.75 3.75 3.75 1.875 1.875 3.75 1.875 5.625 3.75 45 13.125 75 54.375 75 101.25-3.75 45-31.875 86.25-76.875 99.375z"/>
</svg>
